<svg width="55" height="48" viewBox="0 0 55 48" fill="none" xmlns="http://www.w3.org/2000/svg">
<g clip-path="url(#clip0_134_287)">
<path d="M47.6482 48C51.7085 48 55 47.7482 55 47.4376C55 47.127 51.7085 46.8752 47.6482 46.8752C43.5879 46.8752 40.2964 47.127 40.2964 47.4376C40.2964 47.7482 43.5879 48 47.6482 48Z" fill="#E6E6E6"/>
<path d="M50.4969 31.3356L49.786 33.3248C49.7321 33.4756 49.7318 33.6404 49.7852 33.7913C49.8386 33.9422 49.9423 34.07 50.0789 34.153C50.1783 34.2134 50.2912 34.2478 50.4073 34.2529C50.5234 34.258 50.6389 34.2337 50.7432 34.1823C50.8475 34.1308 50.9372 34.0539 51.004 33.9585C51.0709 33.8632 51.1127 33.7525 51.1257 33.6366L51.3513 31.6213L53.0601 25.9556L51.5887 25.2415L50.4969 31.3356Z" fill="#A0616A"/>
<path d="M49.9035 46.3566H50.9478V36.168L48.5745 36.1204L49.9035 46.3566Z" fill="#A0616A"/>
<path d="M45.2519 46.3566H46.2961V36.168L43.9229 36.1204L45.2519 46.3566Z" fill="#A0616A"/>
<path d="M51.114 37.2393L48.4084 36.9536L47.8388 33.9542L46.7945 37.0012L43.5668 36.6679L44.8959 31.6213C47.3253 29.9654 49.6327 30.0016 51.826 31.6213L51.114 37.2393Z" fill="#2F2E41"/>
<path d="M46.5267 46.7905C46.5428 46.9198 46.5291 47.0511 46.4867 47.1742C46.4442 47.2973 46.3741 47.409 46.2818 47.5006C46.1894 47.5923 46.0774 47.6614 45.9542 47.7027C45.831 47.744 45.7 47.7564 45.5713 47.7389L43.6476 47.4772C43.4755 47.4503 43.3212 47.356 43.2184 47.215C43.1155 47.0741 43.0727 46.898 43.0991 46.7254C43.123 46.5697 43.2017 46.4277 43.3209 46.3251C43.4401 46.2226 43.5919 46.1662 43.749 46.1662H44.0661L45.1097 45.2125C45.12 45.8621 45.5969 45.7178 46.3851 45.6544L46.5267 46.7905Z" fill="#2F2E41"/>
<path d="M51.1784 46.7905C51.1945 46.9198 51.1808 47.0511 51.1383 47.1742C51.0959 47.2973 51.0258 47.409 50.9334 47.5006C50.8411 47.5923 50.729 47.6614 50.6059 47.7027C50.4827 47.744 50.3517 47.7564 50.223 47.7389L48.2992 47.4772C48.1272 47.4503 47.9728 47.356 47.87 47.215C47.7672 47.0741 47.7243 46.898 47.7508 46.7254C47.7747 46.5697 47.8533 46.4277 47.9725 46.3251C48.0917 46.2226 48.2436 46.1662 48.4006 46.1662H48.7178L49.7614 45.2125C49.7717 45.8621 50.2486 45.7178 51.0368 45.6544L51.1784 46.7905Z" fill="#2F2E41"/>
<path d="M47.4709 19.9091C48.395 19.9091 49.1441 19.1577 49.1441 18.2308C49.1441 17.304 48.395 16.5526 47.4709 16.5526C46.5468 16.5526 45.7977 17.304 45.7977 18.2308C45.7977 19.1577 46.5468 19.9091 47.4709 19.9091Z" fill="#A0616A"/>
<path d="M49.5951 21.0517L47.5065 21.2422V19.3854L48.5982 18.7189L49.5951 21.0517Z" fill="#A0616A"/>
<path d="M52.0633 32.3354C49.9622 30.7922 47.4393 30.949 44.6586 32.1449C45.9184 28.5675 46.4551 25.2335 45.4655 22.413C45.4655 21.9147 45.6309 21.4305 45.9356 21.0369C46.2402 20.6433 46.6669 20.3626 47.1482 20.2391L47.5065 20.1472L49.2628 20.2424L50.912 21.2121C51.2483 21.4098 51.5275 21.692 51.722 22.0308C51.9166 22.3697 52.0199 22.7535 52.0216 23.1445L52.0633 32.3354Z" fill="#E6E6E6"/>
<path d="M43.9466 30.9547L43.2356 32.9439C43.1817 33.0947 43.1815 33.2595 43.2348 33.4104C43.2882 33.5613 43.392 33.6891 43.5285 33.7721C43.6279 33.8326 43.7409 33.8669 43.857 33.872C43.9731 33.8771 44.0886 33.8529 44.1929 33.8014C44.2972 33.75 44.3869 33.673 44.4537 33.5777C44.5205 33.4823 44.5624 33.3716 44.5753 33.2558L44.801 31.2404L46.5098 25.5747L45.0383 24.8606L43.9466 30.9547Z" fill="#A0616A"/>
<path d="M53.4398 27.0507H51.114V21.3374C51.5162 21.5616 51.8657 21.8699 52.1387 22.2415C52.4117 22.613 52.6018 23.0391 52.6962 23.4909L53.4398 27.0507Z" fill="#E6E6E6"/>
<path d="M46.1953 17.3222C46.093 17.3706 45.9804 17.3928 45.8675 17.3866C45.7546 17.3805 45.645 17.3463 45.5486 17.2871C45.4542 17.2246 45.383 17.1327 45.3458 17.0256C45.3087 16.9185 45.3077 16.8021 45.3429 16.6943C45.4135 16.5124 45.592 16.3985 45.7652 16.3094C46.1473 16.1132 46.5568 15.976 46.9798 15.9025C47.1814 15.8675 47.395 15.8482 47.5856 15.923C47.6799 15.96 47.7645 16.0186 47.8581 16.0573C48.0302 16.1286 48.2222 16.1289 48.4044 16.1675C48.5909 16.2084 48.7665 16.2889 48.9193 16.4037C49.0721 16.5186 49.1985 16.6649 49.29 16.833C49.3499 16.9474 49.3959 17.0685 49.427 17.1939C49.5148 17.5369 49.5136 17.8967 49.4237 18.2391C49.2804 18.7816 48.9158 19.28 48.9486 19.8402C48.679 19.6828 48.5527 19.3622 48.3276 19.1455C48.1602 18.9855 47.9437 18.8871 47.7133 18.8664C47.6504 18.8689 47.5881 18.853 47.534 18.8206C47.4947 18.7822 47.4676 18.733 47.456 18.6792L47.2024 17.8824C47.1507 17.7202 47.0884 17.544 46.9425 17.457C46.8525 17.4113 46.7532 17.3871 46.6524 17.3863C46.4111 17.3687 46.1688 17.371 45.928 17.3931" fill="#2F2E41"/>
<path d="M46.7471 26.0032L44.0415 24.9558L45.2702 21.6351C45.4133 21.2484 45.6646 20.9113 45.9939 20.6643C46.3232 20.4173 46.7166 20.2708 47.1268 20.2424L46.7471 26.0032Z" fill="#E6E6E6"/>
<path d="M32.1914 35.5509H2.47683C2.33581 35.5507 2.20062 35.4945 2.1009 35.3944C2.00119 35.2944 1.9451 35.1588 1.94495 35.0174V2.5096C1.9451 2.36816 2.00119 2.23255 2.1009 2.13253C2.20062 2.03252 2.33581 1.97626 2.47683 1.9761H32.1914C32.3324 1.97626 32.4676 2.03252 32.5673 2.13253C32.667 2.23255 32.7231 2.36816 32.7233 2.5096V35.0174C32.7231 35.1588 32.667 35.2944 32.5673 35.3944C32.4676 35.4945 32.3324 35.5507 32.1914 35.5509ZM2.47683 2.1895C2.39222 2.1896 2.3111 2.22335 2.25127 2.28336C2.19144 2.34337 2.15779 2.42474 2.1577 2.5096V35.0174C2.15779 35.1022 2.19144 35.1836 2.25127 35.2436C2.3111 35.3036 2.39222 35.3374 2.47683 35.3375H32.1914C32.276 35.3374 32.3571 35.3036 32.417 35.2436C32.4768 35.1836 32.5104 35.1022 32.5105 35.0174V2.5096C32.5104 2.42474 32.4768 2.34337 32.417 2.28336C32.3571 2.22335 32.276 2.1896 32.1914 2.1895H2.47683Z" fill="#E6E6E6"/>
<path d="M8.60857 14.0933C8.99409 14.0933 9.30661 13.7798 9.30661 13.3932C9.30661 13.0065 8.99409 12.693 8.60857 12.693C8.22305 12.693 7.91052 13.0065 7.91052 13.3932C7.91052 13.7798 8.22305 14.0933 8.60857 14.0933Z" fill="#E6E6E6"/>
<path d="M11.5171 14.0933C11.9027 14.0933 12.2152 13.7798 12.2152 13.3932C12.2152 13.0065 11.9027 12.693 11.5171 12.693C11.1316 12.693 10.8191 13.0065 10.8191 13.3932C10.8191 13.7798 11.1316 14.0933 11.5171 14.0933Z" fill="#E6E6E6"/>
<path d="M14.4257 14.0933C14.8112 14.0933 15.1237 13.7798 15.1237 13.3932C15.1237 13.0065 14.8112 12.693 14.4257 12.693C14.0401 12.693 13.7276 13.0065 13.7276 13.3932C13.7276 13.7798 14.0401 14.0933 14.4257 14.0933Z" fill="#606060"/>
<path d="M17.3342 14.0933C17.7197 14.0933 18.0322 13.7798 18.0322 13.3932C18.0322 13.0065 17.7197 12.693 17.3342 12.693C16.9486 12.693 16.6361 13.0065 16.6361 13.3932C16.6361 13.7798 16.9486 14.0933 17.3342 14.0933Z" fill="#606060"/>
<path d="M20.2427 14.0933C20.6282 14.0933 20.9407 13.7798 20.9407 13.3932C20.9407 13.0065 20.6282 12.693 20.2427 12.693C19.8571 12.693 19.5446 13.0065 19.5446 13.3932C19.5446 13.7798 19.8571 14.0933 20.2427 14.0933Z" fill="#606060"/>
<path d="M23.1512 14.0933C23.5367 14.0933 23.8492 13.7798 23.8492 13.3932C23.8492 13.0065 23.5367 12.693 23.1512 12.693C22.7657 12.693 22.4531 13.0065 22.4531 13.3932C22.4531 13.7798 22.7657 14.0933 23.1512 14.0933Z" fill="#E6E6E6"/>
<path d="M26.0597 14.0933C26.4453 14.0933 26.7578 13.7798 26.7578 13.3932C26.7578 13.0065 26.4453 12.693 26.0597 12.693C25.6742 12.693 25.3617 13.0065 25.3617 13.3932C25.3617 13.7798 25.6742 14.0933 26.0597 14.0933Z" fill="#E6E6E6"/>
<path d="M8.60857 16.3105C8.99409 16.3105 9.30661 15.997 9.30661 15.6103C9.30661 15.2237 8.99409 14.9102 8.60857 14.9102C8.22305 14.9102 7.91052 15.2237 7.91052 15.6103C7.91052 15.997 8.22305 16.3105 8.60857 16.3105Z" fill="#E6E6E6"/>
<path d="M11.5171 16.3105C11.9027 16.3105 12.2152 15.997 12.2152 15.6103C12.2152 15.2237 11.9027 14.9102 11.5171 14.9102C11.1316 14.9102 10.8191 15.2237 10.8191 15.6103C10.8191 15.997 11.1316 16.3105 11.5171 16.3105Z" fill="#E6E6E6"/>
<path d="M14.4257 16.3105C14.8112 16.3105 15.1237 15.997 15.1237 15.6103C15.1237 15.2237 14.8112 14.9102 14.4257 14.9102C14.0401 14.9102 13.7276 15.2237 13.7276 15.6103C13.7276 15.997 14.0401 16.3105 14.4257 16.3105Z" fill="#E6E6E6"/>
<path d="M17.3342 16.3105C17.7197 16.3105 18.0322 15.997 18.0322 15.6103C18.0322 15.2237 17.7197 14.9102 17.3342 14.9102C16.9486 14.9102 16.6361 15.2237 16.6361 15.6103C16.6361 15.997 16.9486 16.3105 17.3342 16.3105Z" fill="#E6E6E6"/>
<path d="M20.2427 16.3105C20.6282 16.3105 20.9407 15.997 20.9407 15.6103C20.9407 15.2237 20.6282 14.9102 20.2427 14.9102C19.8571 14.9102 19.5446 15.2237 19.5446 15.6103C19.5446 15.997 19.8571 16.3105 20.2427 16.3105Z" fill="#E6E6E6"/>
<path d="M23.1512 16.3105C23.5367 16.3105 23.8492 15.997 23.8492 15.6103C23.8492 15.2237 23.5367 14.9102 23.1512 14.9102C22.7657 14.9102 22.4531 15.2237 22.4531 15.6103C22.4531 15.997 22.7657 16.3105 23.1512 16.3105Z" fill="#E6E6E6"/>
<path d="M26.0597 16.3105C26.4453 16.3105 26.7578 15.997 26.7578 15.6103C26.7578 15.2237 26.4453 14.9102 26.0597 14.9102C25.6742 14.9102 25.3617 15.2237 25.3617 15.6103C25.3617 15.997 25.6742 16.3105 26.0597 16.3105Z" fill="#E6E6E6"/>
<path d="M8.60857 18.5277C8.99409 18.5277 9.30661 18.2142 9.30661 17.8275C9.30661 17.4408 8.99409 17.1273 8.60857 17.1273C8.22305 17.1273 7.91052 17.4408 7.91052 17.8275C7.91052 18.2142 8.22305 18.5277 8.60857 18.5277Z" fill="#606060"/>
<path d="M11.5171 18.5277C11.9027 18.5277 12.2152 18.2142 12.2152 17.8275C12.2152 17.4408 11.9027 17.1273 11.5171 17.1273C11.1316 17.1273 10.8191 17.4408 10.8191 17.8275C10.8191 18.2142 11.1316 18.5277 11.5171 18.5277Z" fill="#606060"/>
<path d="M14.4257 18.5277C14.8112 18.5277 15.1237 18.2142 15.1237 17.8275C15.1237 17.4408 14.8112 17.1273 14.4257 17.1273C14.0401 17.1273 13.7276 17.4408 13.7276 17.8275C13.7276 18.2142 14.0401 18.5277 14.4257 18.5277Z" fill="#606060"/>
<path d="M17.3342 18.5277C17.7197 18.5277 18.0322 18.2142 18.0322 17.8275C18.0322 17.4408 17.7197 17.1273 17.3342 17.1273C16.9486 17.1273 16.6361 17.4408 16.6361 17.8275C16.6361 18.2142 16.9486 18.5277 17.3342 18.5277Z" fill="#E6E6E6"/>
<path d="M20.2427 18.5277C20.6282 18.5277 20.9407 18.2142 20.9407 17.8275C20.9407 17.4408 20.6282 17.1273 20.2427 17.1273C19.8571 17.1273 19.5446 17.4408 19.5446 17.8275C19.5446 18.2142 19.8571 18.5277 20.2427 18.5277Z" fill="#E6E6E6"/>
<path d="M23.1512 18.5277C23.5367 18.5277 23.8492 18.2142 23.8492 17.8275C23.8492 17.4408 23.5367 17.1273 23.1512 17.1273C22.7657 17.1273 22.4531 17.4408 22.4531 17.8275C22.4531 18.2142 22.7657 18.5277 23.1512 18.5277Z" fill="#E6E6E6"/>
<path d="M26.0597 18.5277C26.4453 18.5277 26.7578 18.2142 26.7578 17.8275C26.7578 17.4408 26.4453 17.1273 26.0597 17.1273C25.6742 17.1273 25.3617 17.4408 25.3617 17.8275C25.3617 18.2142 25.6742 18.5277 26.0597 18.5277Z" fill="#E6E6E6"/>
<path d="M8.60857 20.7449C8.99409 20.7449 9.30661 20.4314 9.30661 20.0447C9.30661 19.658 8.99409 19.3445 8.60857 19.3445C8.22305 19.3445 7.91052 19.658 7.91052 20.0447C7.91052 20.4314 8.22305 20.7449 8.60857 20.7449Z" fill="#E6E6E6"/>
<path d="M11.5171 20.7449C11.9027 20.7449 12.2152 20.4314 12.2152 20.0447C12.2152 19.658 11.9027 19.3445 11.5171 19.3445C11.1316 19.3445 10.8191 19.658 10.8191 20.0447C10.8191 20.4314 11.1316 20.7449 11.5171 20.7449Z" fill="#E6E6E6"/>
<path d="M8.60857 22.9621C8.99409 22.9621 9.30661 22.6486 9.30661 22.2619C9.30661 21.8752 8.99409 21.5617 8.60857 21.5617C8.22305 21.5617 7.91052 21.8752 7.91052 22.2619C7.91052 22.6486 8.22305 22.9621 8.60857 22.9621Z" fill="#E6E6E6"/>
<path d="M11.5171 22.9621C11.9027 22.9621 12.2152 22.6486 12.2152 22.2619C12.2152 21.8752 11.9027 21.5617 11.5171 21.5617C11.1316 21.5617 10.8191 21.8752 10.8191 22.2619C10.8191 22.6486 11.1316 22.9621 11.5171 22.9621Z" fill="#E6E6E6"/>
<path d="M14.4257 22.9621C14.8112 22.9621 15.1237 22.6486 15.1237 22.2619C15.1237 21.8752 14.8112 21.5617 14.4257 21.5617C14.0401 21.5617 13.7276 21.8752 13.7276 22.2619C13.7276 22.6486 14.0401 22.9621 14.4257 22.9621Z" fill="#E6E6E6"/>
<path d="M14.4257 20.7449C14.8112 20.7449 15.1237 20.4314 15.1237 20.0447C15.1237 19.658 14.8112 19.3445 14.4257 19.3445C14.0401 19.3445 13.7276 19.658 13.7276 20.0447C13.7276 20.4314 14.0401 20.7449 14.4257 20.7449Z" fill="#E6E6E6"/>
<path d="M17.3342 20.7449C17.7197 20.7449 18.0322 20.4314 18.0322 20.0447C18.0322 19.658 17.7197 19.3445 17.3342 19.3445C16.9486 19.3445 16.6361 19.658 16.6361 20.0447C16.6361 20.4314 16.9486 20.7449 17.3342 20.7449Z" fill="#606060"/>
<path d="M20.2427 20.7449C20.6282 20.7449 20.9407 20.4314 20.9407 20.0447C20.9407 19.658 20.6282 19.3445 20.2427 19.3445C19.8571 19.3445 19.5446 19.658 19.5446 20.0447C19.5446 20.4314 19.8571 20.7449 20.2427 20.7449Z" fill="#606060"/>
<path d="M23.1512 20.7449C23.5367 20.7449 23.8492 20.4314 23.8492 20.0447C23.8492 19.658 23.5367 19.3445 23.1512 19.3445C22.7657 19.3445 22.4531 19.658 22.4531 20.0447C22.4531 20.4314 22.7657 20.7449 23.1512 20.7449Z" fill="#606060"/>
<path d="M26.0597 20.7449C26.4453 20.7449 26.7578 20.4314 26.7578 20.0447C26.7578 19.658 26.4453 19.3445 26.0597 19.3445C25.6742 19.3445 25.3617 19.658 25.3617 20.0447C25.3617 20.4314 25.6742 20.7449 26.0597 20.7449Z" fill="#E6E6E6"/>
<path d="M12.05 7.20425C11.9394 7.20608 11.8339 7.25144 11.7563 7.33056C11.6787 7.40969 11.6352 7.51623 11.6352 7.62721C11.6352 7.7382 11.6787 7.84474 11.7563 7.92386C11.8339 8.00298 11.9394 8.04834 12.05 8.05017H22.6228C22.6783 8.05114 22.7333 8.04115 22.7849 8.02077C22.8364 8.00038 22.8835 7.97 22.9233 7.93137C22.9632 7.89273 22.9951 7.8466 23.0171 7.7956C23.0392 7.7446 23.051 7.68975 23.0519 7.63416C23.0528 7.57858 23.0428 7.52336 23.0224 7.47167C23.002 7.41997 22.9717 7.37281 22.9331 7.33288C22.8946 7.29296 22.8485 7.26105 22.7977 7.23897C22.7468 7.2169 22.6921 7.2051 22.6367 7.20425C22.6321 7.20417 22.6275 7.20417 22.6228 7.20425H12.05Z" fill="#3F3D56"/>
<path d="M25.0204 7.08648C25.0127 7.09421 25.0066 7.10338 25.0024 7.11348C24.9983 7.12358 24.9961 7.1344 24.9961 7.14533C24.9961 7.15626 24.9983 7.16709 25.0024 7.17718C25.0066 7.18728 25.0127 7.19646 25.0204 7.20419L25.3766 7.56148H24.4983C24.4763 7.56148 24.4551 7.57025 24.4396 7.58586C24.424 7.60147 24.4153 7.62264 24.4153 7.64471C24.4153 7.66678 24.424 7.68795 24.4396 7.70356C24.4551 7.71917 24.4763 7.72794 24.4983 7.72794H25.3766L25.0204 8.08523C25.0127 8.09296 25.0066 8.10214 25.0024 8.11223C24.9983 8.12233 24.9961 8.13315 24.9961 8.14408C24.9961 8.15501 24.9983 8.16584 25.0024 8.17594C25.0066 8.18603 25.0127 8.19521 25.0204 8.20294C25.0281 8.21067 25.0373 8.2168 25.0473 8.22098C25.0574 8.22516 25.0682 8.22732 25.0791 8.22732C25.09 8.22732 25.1008 8.22516 25.1109 8.22098C25.1209 8.2168 25.1301 8.21067 25.1378 8.20294L25.6356 7.70356C25.6512 7.68795 25.6599 7.66678 25.6599 7.64471C25.6599 7.62264 25.6512 7.60147 25.6356 7.58586L25.1378 7.08648C25.1301 7.07875 25.1209 7.07262 25.1109 7.06844C25.1008 7.06426 25.09 7.0621 25.0791 7.0621C25.0682 7.0621 25.0574 7.06426 25.0474 7.06844C25.0373 7.07262 25.0281 7.07875 25.0204 7.08648Z" fill="#E6E6E6"/>
<path d="M9.64782 7.08648C9.65552 7.09421 9.66164 7.10339 9.66581 7.11348C9.66998 7.12358 9.67212 7.1344 9.67212 7.14533C9.67212 7.15626 9.66998 7.16709 9.66581 7.17719C9.66164 7.18728 9.65552 7.19646 9.64782 7.20419L9.29161 7.56148H10.17C10.192 7.56148 10.2131 7.57025 10.2287 7.58586C10.2442 7.60147 10.253 7.62264 10.253 7.64471C10.253 7.66678 10.2442 7.68795 10.2287 7.70356C10.2131 7.71917 10.192 7.72794 10.17 7.72794H9.29161L9.64782 8.08523C9.66338 8.10084 9.67212 8.12201 9.67212 8.14409C9.67212 8.16616 9.66338 8.18733 9.64782 8.20294C9.63226 8.21855 9.61115 8.22732 9.58914 8.22732C9.56714 8.22732 9.54603 8.21855 9.53047 8.20294L9.03261 7.70356C9.01704 7.68795 9.0083 7.66678 9.0083 7.64471C9.0083 7.62264 9.01704 7.60147 9.03261 7.58586L9.53047 7.08648C9.53818 7.07875 9.54732 7.07262 9.55739 7.06844C9.56746 7.06426 9.57825 7.0621 9.58914 7.0621C9.60004 7.0621 9.61083 7.06426 9.6209 7.06844C9.63097 7.07262 9.64011 7.07875 9.64782 7.08648Z" fill="#E6E6E6"/>
<path d="M11.459 27.4308C11.2603 27.4307 11.0635 27.4698 10.8799 27.546C10.6962 27.6222 10.5294 27.7339 10.3888 27.8748C10.2483 28.0157 10.1368 28.1829 10.0607 28.3671C9.98465 28.5512 9.9455 28.7485 9.9455 28.9478C9.9455 29.1471 9.98465 29.3445 10.0607 29.5286C10.1368 29.7127 10.2483 29.88 10.3888 30.0209C10.5294 30.1618 10.6962 30.2735 10.8799 30.3497C11.0635 30.4259 11.2603 30.465 11.459 30.4649H23.2094C23.4081 30.465 23.6049 30.4259 23.7885 30.3497C23.9721 30.2735 24.139 30.1618 24.2795 30.0209C24.4201 29.88 24.5316 29.7127 24.6077 29.5286C24.6837 29.3445 24.7229 29.1471 24.7229 28.9478C24.7229 28.7485 24.6837 28.5512 24.6077 28.3671C24.5316 28.1829 24.4201 28.0157 24.2795 27.8748C24.139 27.7339 23.9721 27.6222 23.7885 27.546C23.6049 27.4698 23.4081 27.4307 23.2094 27.4308H11.459Z" fill="#6AB089"/>
<path d="M2.43053 4.87581C1.94982 4.87581 1.4799 4.73283 1.0802 4.46495C0.680502 4.19707 0.368976 3.81632 0.185014 3.37085C0.00105316 2.92538 -0.0470795 2.4352 0.0467031 1.96229C0.140486 1.48939 0.371971 1.05499 0.711887 0.714047C1.0518 0.3731 1.48488 0.140912 1.95636 0.0468449C2.42784 -0.0472222 2.91653 0.00105594 3.36066 0.185575C3.80478 0.370094 4.18437 0.682567 4.45144 1.08348C4.71851 1.48439 4.86106 1.95573 4.86106 2.4379C4.86034 3.08425 4.60403 3.70392 4.14837 4.16096C3.69272 4.61799 3.07493 4.87508 2.43053 4.87581Z" fill="#606060"/>
<path d="M3.38956 2.19742H2.6703V1.47596C2.6703 1.41218 2.64504 1.35101 2.60007 1.30591C2.55511 1.26081 2.49413 1.23547 2.43054 1.23547C2.36695 1.23547 2.30597 1.26081 2.261 1.30591C2.21604 1.35101 2.19078 1.41218 2.19078 1.47596V2.19742H1.47151C1.40792 2.19742 1.34694 2.22275 1.30197 2.26785C1.25701 2.31295 1.23175 2.37412 1.23175 2.4379C1.23175 2.50168 1.25701 2.56285 1.30197 2.60795C1.34694 2.65305 1.40792 2.67838 1.47151 2.67838H2.19078V3.39984C2.19078 3.46362 2.21604 3.52479 2.261 3.56989C2.30597 3.61499 2.36695 3.64032 2.43054 3.64032C2.49413 3.64032 2.55511 3.61499 2.60007 3.56989C2.64504 3.52479 2.6703 3.46362 2.6703 3.39984V2.67838H3.38956C3.45315 2.67838 3.51413 2.65305 3.55909 2.60795C3.60405 2.56285 3.62931 2.50168 3.62931 2.4379C3.62931 2.37412 3.60405 2.31295 3.55909 2.26785C3.51413 2.22275 3.45315 2.19742 3.38956 2.19742Z" fill="white"/>
</g>
<defs>
<clipPath id="clip0_134_287">
<rect width="55" height="48" fill="white"/>
</clipPath>
</defs>
</svg>
