<svg width="78" height="74" viewBox="0 0 78 74" fill="none" xmlns="http://www.w3.org/2000/svg">
<path d="M0 5C0 2.23858 2.23858 0 5 0H73C75.7614 0 78 2.23858 78 5V69C78 71.7614 75.7614 74 73 74H5C2.23858 74 0 71.7614 0 69V5Z" fill="#212529"/>
<g clip-path="url(#clip0_134_121)">
<path d="M63.7401 66.9411V61.0243C63.7401 61.0243 66.0076 65.2191 63.7401 66.9411Z" fill="#F1F1F1"/>
<path d="M63.8802 66.9401L59.5942 62.9387C59.5942 62.9387 64.1662 64.0769 63.8802 66.9401Z" fill="#F1F1F1"/>
<path d="M48.7631 34.1071L26.019 47.6254C25.9394 47.6726 25.8446 47.6858 25.7555 47.662C25.6663 47.6382 25.5901 47.5795 25.5435 47.4986L10.9176 22.0501C10.8712 21.9691 10.8582 21.8728 10.8816 21.7821C10.905 21.6915 10.9628 21.614 11.0423 21.5666L33.7864 8.04821C33.866 8.00102 33.9608 7.98787 34.0499 8.01164C34.139 8.03541 34.2152 8.09416 34.2618 8.175L48.8878 33.6236C48.9342 33.7045 48.9471 33.8009 48.9237 33.8915C48.9004 33.9822 48.8426 34.0597 48.7631 34.1071Z" fill="white"/>
<path d="M48.7631 34.1071L26.019 47.6254C25.9394 47.6726 25.8446 47.6858 25.7555 47.662C25.6663 47.6382 25.5901 47.5795 25.5435 47.4986L10.9176 22.0501C10.8712 21.9691 10.8582 21.8728 10.8816 21.7821C10.905 21.6915 10.9628 21.614 11.0423 21.5666L33.7864 8.04821C33.866 8.00102 33.9608 7.98787 34.0499 8.01164C34.139 8.03541 34.2152 8.09416 34.2618 8.175L48.8878 33.6236C48.9342 33.7045 48.9471 33.8009 48.9237 33.8915C48.9004 33.9822 48.8426 34.0597 48.7631 34.1071ZM11.1124 21.6886C11.0647 21.7171 11.0301 21.7636 11.016 21.818C11.002 21.8723 11.0098 21.9302 11.0376 21.9787L25.6636 47.4273C25.6915 47.4758 25.7372 47.5111 25.7907 47.5253C25.8442 47.5396 25.9011 47.5317 25.9488 47.5034L48.6929 33.985C48.7406 33.9566 48.7753 33.9101 48.7893 33.8557C48.8033 33.8013 48.7956 33.7435 48.7677 33.6949L34.1418 8.24634C34.1138 8.19783 34.0681 8.16257 34.0146 8.14831C33.9612 8.13405 33.9043 8.14194 33.8565 8.17026L11.1124 21.6886Z" fill="#3F3D56"/>
<path d="M25.7324 24.223L20.0914 27.5758C20.0118 27.623 19.917 27.6362 19.8279 27.6124C19.7388 27.5886 19.6626 27.5299 19.616 27.449L16.319 21.7124C16.2726 21.6315 16.2597 21.5351 16.2831 21.4445C16.3064 21.3538 16.3642 21.2763 16.4437 21.229L22.0847 17.8761C22.1643 17.8289 22.2591 17.8158 22.3482 17.8395C22.4373 17.8633 22.5136 17.9221 22.5601 18.0029L25.8571 23.7395C25.9035 23.8205 25.9164 23.9168 25.8931 24.0075C25.8697 24.0981 25.8119 24.1756 25.7324 24.223V24.223ZM16.5138 21.351C16.4661 21.3794 16.4315 21.4259 16.4175 21.4803C16.4034 21.5347 16.4112 21.5925 16.439 21.6411L19.736 27.3777C19.764 27.4262 19.8097 27.4615 19.8632 27.4757C19.9166 27.49 19.9735 27.4821 20.0213 27.4538L25.6623 24.1009C25.71 24.0725 25.7447 24.026 25.7587 23.9716C25.7727 23.9172 25.7649 23.8594 25.7371 23.8109L22.4401 18.0742C22.4122 18.0257 22.3664 17.9905 22.313 17.9762C22.2595 17.962 22.2026 17.9698 22.1549 17.9982L16.5138 21.351Z" fill="#F2F2F2"/>
<path d="M24.5155 25.8879L18.8745 29.2407C18.8029 29.2832 18.7176 29.295 18.6374 29.2736C18.5572 29.2522 18.4886 29.1993 18.4466 29.1266L15.1497 23.39C15.1079 23.3171 15.0963 23.2304 15.1173 23.1488C15.1383 23.0672 15.1903 22.9975 15.2619 22.9548L20.9029 19.602C20.9745 19.5595 21.0598 19.5477 21.14 19.5691C21.2203 19.5905 21.2889 19.6434 21.3308 19.7161L24.6278 25.4527C24.6695 25.5256 24.6812 25.6123 24.6601 25.6939C24.6391 25.7755 24.5871 25.8452 24.5155 25.8879V25.8879Z" fill="#6AB089"/>
<path d="M38.131 21.5614L20.4878 32.048C20.4162 32.0905 20.3309 32.1024 20.2507 32.081C20.1704 32.0596 20.1018 32.0067 20.06 31.9339C20.0181 31.861 20.0064 31.7743 20.0274 31.6927C20.0485 31.6111 20.1005 31.5413 20.1722 31.4987L37.8154 21.0122C37.8508 20.9911 37.89 20.9773 37.9307 20.9717C37.9714 20.966 38.0128 20.9685 38.0526 20.9791C38.0923 20.9897 38.1296 21.0082 38.1623 21.0334C38.195 21.0587 38.2225 21.0902 38.2433 21.1263C38.264 21.1624 38.2775 21.2022 38.2831 21.2436C38.2887 21.285 38.2862 21.3271 38.2758 21.3675C38.2654 21.4079 38.2472 21.4458 38.2224 21.4791C38.1975 21.5124 38.1665 21.5403 38.131 21.5614V21.5614Z" fill="#CCCCCC"/>
<path d="M34.9576 25.9857L21.5752 33.9398C21.5397 33.9609 21.5005 33.9747 21.4598 33.9804C21.4191 33.986 21.3777 33.9835 21.338 33.9729C21.2578 33.9515 21.1892 33.8986 21.1473 33.8257C21.1054 33.7529 21.0937 33.6661 21.1148 33.5845C21.1358 33.5029 21.1879 33.4332 21.2595 33.3906L34.6419 25.4365C34.6774 25.4154 34.7166 25.4017 34.7573 25.396C34.798 25.3903 34.8394 25.3928 34.8791 25.4034C34.9189 25.414 34.9561 25.4325 34.9889 25.4577C35.0216 25.483 35.0491 25.5146 35.0698 25.5506C35.0906 25.5867 35.1041 25.6265 35.1097 25.6679C35.1152 25.7093 35.1128 25.7514 35.1023 25.7918C35.0919 25.8322 35.0738 25.8701 35.0489 25.9034C35.0241 25.9367 34.9931 25.9647 34.9576 25.9858V25.9857Z" fill="#CCCCCC"/>
<path d="M34.0727 14.6399L26.2712 19.2768C26.1996 19.3194 26.1143 19.3313 26.034 19.3099C25.9538 19.2885 25.8852 19.2356 25.8433 19.1627C25.8015 19.0899 25.7898 19.0031 25.8108 18.9215C25.8319 18.8399 25.8839 18.7702 25.9556 18.7276L33.757 14.0907C33.8286 14.0481 33.9139 14.0362 33.9942 14.0576C34.0339 14.0682 34.0712 14.0867 34.1039 14.1119C34.1366 14.1372 34.1641 14.1687 34.1849 14.2048C34.2056 14.2409 34.2191 14.2807 34.2247 14.3221C34.2303 14.3635 34.2278 14.4056 34.2174 14.446C34.207 14.4864 34.1888 14.5243 34.164 14.5576C34.1391 14.5909 34.1081 14.6188 34.0727 14.6399Z" fill="#CCCCCC"/>
<path d="M33.2129 17.689L27.3584 21.1687C27.323 21.1898 27.2838 21.2035 27.2431 21.2092C27.2024 21.2149 27.161 21.2123 27.1213 21.2018C27.0815 21.1912 27.0442 21.1727 27.0115 21.1475C26.9788 21.1222 26.9513 21.0906 26.9306 21.0546C26.9098 21.0185 26.8963 20.9786 26.8907 20.9373C26.8851 20.8959 26.8876 20.8538 26.898 20.8134C26.9085 20.773 26.9266 20.735 26.9514 20.7018C26.9763 20.6685 27.0073 20.6405 27.0428 20.6194L32.8972 17.1397C32.9688 17.0972 33.0542 17.0853 33.1344 17.1067C33.2146 17.1281 33.2832 17.181 33.3251 17.2539C33.367 17.3267 33.3787 17.4135 33.3576 17.4951C33.3366 17.5767 33.2845 17.6464 33.2129 17.689Z" fill="#CCCCCC"/>
<path d="M40.3056 25.3451L22.6625 35.8317C22.5908 35.8743 22.5055 35.8861 22.4253 35.8647C22.345 35.8433 22.2764 35.7904 22.2346 35.7176C22.1927 35.6447 22.181 35.558 22.2021 35.4764C22.2231 35.3948 22.2752 35.325 22.3468 35.2824L39.99 24.7959C40.0616 24.7533 40.1469 24.7414 40.2271 24.7628C40.3074 24.7842 40.376 24.8372 40.4179 24.91C40.4597 24.9828 40.4714 25.0696 40.4504 25.1512C40.4293 25.2328 40.3773 25.3026 40.3056 25.3451V25.3451Z" fill="#CCCCCC"/>
<path d="M37.1322 29.7695L23.7498 37.7235C23.7143 37.7446 23.6751 37.7584 23.6344 37.7641C23.5937 37.7697 23.5524 37.7672 23.5126 37.7566C23.4729 37.746 23.4356 37.7276 23.4029 37.7023C23.3702 37.677 23.3426 37.6455 23.3219 37.6094C23.3012 37.5734 23.2877 37.5335 23.2821 37.4921C23.2765 37.4507 23.279 37.4086 23.2894 37.3682C23.2998 37.3278 23.318 37.2899 23.3428 37.2566C23.3676 37.2233 23.3987 37.1954 23.4341 37.1743L36.8166 29.2202C36.852 29.1991 36.8912 29.1854 36.9319 29.1797C36.9726 29.174 37.014 29.1766 37.0537 29.1872C37.0935 29.1978 37.1308 29.2162 37.1635 29.2415C37.1962 29.2667 37.2237 29.2983 37.2444 29.3343C37.2652 29.3704 37.2787 29.4103 37.2843 29.4517C37.2899 29.493 37.2874 29.5351 37.2769 29.5755C37.2665 29.6159 37.2484 29.6539 37.2236 29.6871C37.1987 29.7204 37.1677 29.7484 37.1322 29.7695V29.7695Z" fill="#CCCCCC"/>
<path d="M42.4803 29.1289L24.8371 39.6154C24.8016 39.6365 24.7624 39.6503 24.7217 39.6559C24.681 39.6616 24.6396 39.6591 24.5999 39.6485C24.5602 39.6379 24.5229 39.6194 24.4902 39.5942C24.4574 39.5689 24.4299 39.5374 24.4092 39.5013C24.3885 39.4652 24.3749 39.4254 24.3694 39.384C24.3638 39.3426 24.3663 39.3005 24.3767 39.2601C24.3871 39.2197 24.4053 39.1818 24.4301 39.1485C24.4549 39.1152 24.486 39.0873 24.5214 39.0662L42.1646 28.5796C42.2001 28.5586 42.2393 28.5448 42.28 28.5391C42.3207 28.5334 42.3621 28.536 42.4018 28.5466C42.4416 28.5572 42.4789 28.5756 42.5116 28.6009C42.5443 28.6261 42.5718 28.6577 42.5925 28.6937C42.6133 28.7298 42.6268 28.7697 42.6324 28.8111C42.6379 28.8524 42.6355 28.8945 42.625 28.9349C42.6146 28.9754 42.5965 29.0133 42.5716 29.0465C42.5468 29.0798 42.5158 29.1078 42.4803 29.1289V29.1289Z" fill="#CCCCCC"/>
<path d="M43.5675 31.0207L25.9244 41.5073C25.8889 41.5284 25.8497 41.5421 25.809 41.5478C25.7683 41.5535 25.7269 41.5509 25.6872 41.5403C25.6474 41.5297 25.6102 41.5113 25.5774 41.486C25.5447 41.4608 25.5172 41.4292 25.4965 41.3932C25.4757 41.3571 25.4622 41.3172 25.4566 41.2759C25.4511 41.2345 25.4535 41.1924 25.464 41.152C25.4744 41.1116 25.4925 41.0736 25.5174 41.0404C25.5422 41.0071 25.5732 40.9791 25.6087 40.958L43.2519 30.4715C43.2873 30.4504 43.3265 30.4366 43.3672 30.431C43.4079 30.4253 43.4493 30.4278 43.4891 30.4384C43.5288 30.449 43.5661 30.4675 43.5988 30.4927C43.6315 30.518 43.659 30.5495 43.6798 30.5856C43.7005 30.6217 43.714 30.6615 43.7196 30.7029C43.7252 30.7443 43.7227 30.7864 43.7123 30.8268C43.7019 30.8672 43.6837 30.9051 43.6589 30.9384C43.634 30.9717 43.603 30.9996 43.5675 31.0207V31.0207Z" fill="#CCCCCC"/>
<path d="M37.8621 38.3855C38.1072 38.0919 38.3279 37.7781 38.5217 37.4473C38.6956 37.1489 38.8661 36.8298 38.9045 36.4798C38.9241 36.3307 38.9088 36.1791 38.8599 36.0371C38.811 35.8952 38.7299 35.767 38.6231 35.663C38.5199 35.5663 38.3891 35.5054 38.2496 35.4893C38.1101 35.4732 37.9692 35.5026 37.8473 35.5733C37.7239 35.6454 37.6219 35.75 37.5522 35.8761C37.4825 36.0022 37.4476 36.1452 37.4513 36.2898C37.4613 36.4491 37.5066 36.604 37.5837 36.743C37.6608 36.8819 37.7677 37.0014 37.8966 37.0925C38.418 37.4767 39.2325 37.4567 39.7883 37.1643C40.4144 36.8349 40.7378 35.9733 40.246 35.3834C40.1437 35.2608 39.9734 35.3979 39.9991 35.5302C40.0316 35.709 40.13 35.8684 40.2741 35.9758C40.4183 36.0833 40.5974 36.1307 40.7748 36.1084C40.9522 36.0861 41.1146 35.9958 41.2287 35.8558C41.3428 35.7159 41.4001 35.537 41.3888 35.3555L41.1677 35.487C41.4388 35.6091 41.7367 35.6564 42.0315 35.6243C42.3263 35.5921 42.6075 35.4816 42.847 35.3038C42.9654 35.2162 43.0712 35.1123 43.1612 34.9949C43.2695 34.8513 43.4513 34.7585 43.5985 34.6551L44.6594 33.9096C44.8154 33.8 44.667 33.5387 44.5097 33.6492L43.5489 34.3244C43.3888 34.4369 43.2276 34.548 43.0685 34.6619C42.9547 34.7434 42.8847 34.8749 42.7812 34.9716C42.5853 35.1509 42.3432 35.2698 42.0833 35.3145C41.8234 35.3592 41.5563 35.3279 41.3133 35.2241C41.2906 35.2117 41.2652 35.2055 41.2395 35.2059C41.2138 35.2064 41.1887 35.2136 41.1665 35.2268C41.1443 35.24 41.1258 35.2587 41.1128 35.2813C41.0998 35.3038 41.0927 35.3294 41.0922 35.3555C41.1039 35.4638 41.073 35.5724 41.0064 35.6576C40.9397 35.7429 40.8427 35.7979 40.7363 35.8107C40.63 35.8235 40.5229 35.7931 40.4386 35.726C40.3542 35.659 40.2993 35.5607 40.2858 35.4527L40.0389 35.5994C40.3561 35.9799 40.1449 36.5635 39.7793 36.8188C39.3705 37.1044 38.7665 37.1539 38.3056 36.9764C38.1926 36.9369 38.0888 36.8741 38.0007 36.7919C37.9126 36.7097 37.8422 36.6099 37.7937 36.4988C37.7488 36.3984 37.736 36.2862 37.7571 36.178C37.7782 36.0698 37.8321 35.9711 37.9113 35.8957C37.9799 35.8268 38.0722 35.7877 38.1686 35.7866C38.2651 35.7856 38.3582 35.8227 38.4282 35.8901C38.5045 35.9693 38.5605 36.0664 38.5912 36.1728C38.622 36.2792 38.6265 36.3916 38.6044 36.5002C38.5569 36.8024 38.3926 37.0811 38.2398 37.3392C38.0653 37.6333 37.868 37.9127 37.6497 38.1748C37.5274 38.3221 37.7385 38.5343 37.8621 38.3855L37.8621 38.3855Z" fill="#6AB089"/>
<path d="M40.4954 45.5571C40.5209 45.5839 40.5444 45.6126 40.5655 45.6431L43.8509 45.5613L44.2342 44.8491L45.3668 45.2968L44.8088 46.6248C44.7637 46.7321 44.6856 46.8216 44.5862 46.8799C44.4869 46.9382 44.3716 46.9621 44.2577 46.9482L40.5458 46.4921C40.4582 46.6049 40.339 46.6878 40.204 46.73C40.0689 46.7721 39.9245 46.7714 39.7898 46.728C39.6551 46.6846 39.5367 46.6006 39.4501 46.487C39.3636 46.3735 39.3131 46.2358 39.3054 46.0924C39.2976 45.949 39.333 45.8065 39.4068 45.684C39.4806 45.5616 39.5894 45.4648 39.7186 45.4067C39.8477 45.3486 39.9913 45.3319 40.13 45.3587C40.2688 45.3856 40.3962 45.4548 40.4954 45.5571V45.5571Z" fill="#FFB7B7"/>
<path d="M51.2053 65.8478H50.1251L49.6111 61.6104L51.2055 61.6105L51.2053 65.8478Z" fill="#FFB7B7"/>
<path d="M51.4808 66.9127L47.9976 66.9126V66.8678C47.9976 66.5021 48.1404 66.1515 48.3947 65.8929C48.6489 65.6343 48.9938 65.4891 49.3533 65.4891H49.3534L51.4808 65.4891L51.4808 66.9127Z" fill="#2F2E41"/>
<path d="M41.3961 65.8234L40.4028 65.3918L41.567 61.2898L43.0331 61.9268L41.3961 65.8234Z" fill="#FFB7B7"/>
<path d="M41.2381 66.9127L38.035 65.5211L38.0523 65.4799C38.1935 65.1437 38.4604 64.8782 38.7941 64.742C39.1277 64.6058 39.501 64.61 39.8316 64.7536L39.8317 64.7537L41.7881 65.6036L41.2381 66.9127Z" fill="#2F2E41"/>
<path d="M45.9545 46.4751L45.8763 47.7624L48.1598 48.0109L50.549 48.2709L49.8457 46.3161L45.9545 46.4751Z" fill="#FFB7B7"/>
<path d="M45.8045 47.7789L44.9174 41.4902L46.4549 40.9777L46.9065 40.3479L49.1041 40.4802L49.4267 41.2151L50.5985 41.7782L50.4184 45.1792L50.5498 48.0243L45.8045 47.7789Z" fill="#2F2E41"/>
<path d="M45.2462 46.0937L43.6823 45.4574L43.6889 45.4291C43.6956 45.4005 44.3612 42.5718 44.4496 42.1173C44.5417 41.6437 44.8781 41.5128 44.8924 41.5075L44.9028 41.5035L45.5217 41.6951L45.7935 43.8671L45.2462 46.0937Z" fill="#2F2E41"/>
<path d="M42.2008 65.0787L40.119 64.6444L43.4463 55.3076L44.585 52.1229C44.585 52.1229 45.3073 49.5694 45.6336 48.5813L45.8306 47.2554L50.4924 47.7802C50.4924 47.7802 51.7944 49.7247 51.3989 52.8942L51.5778 64.8072L49.496 64.9158L47.7522 52.901L44.6918 59.4874C44.6918 59.4874 43.7272 62.2981 43.037 62.9073L42.2008 65.0787Z" fill="#2F2E41"/>
<path d="M48.6228 48.2224C48.6595 48.2215 48.6962 48.2235 48.7325 48.2285L50.9073 45.7229L50.6544 44.9529L51.7473 44.4127L52.3254 45.7317C52.3721 45.8382 52.3836 45.9573 52.358 46.0711C52.3325 46.1848 52.2714 46.2871 52.1839 46.3625L49.3313 48.8205C49.3531 48.9624 49.3318 49.1077 49.2704 49.2371C49.209 49.3664 49.1103 49.4737 48.9874 49.5446C48.8646 49.6155 48.7234 49.6467 48.5827 49.6341C48.442 49.6214 48.3084 49.5655 48.1997 49.4737C48.091 49.382 48.0124 49.2587 47.9743 49.1204C47.9361 48.9821 47.9403 48.8352 47.9862 48.6994C48.0322 48.5636 48.1177 48.4452 48.2314 48.3599C48.3451 48.2747 48.4817 48.2267 48.6228 48.2224V48.2224Z" fill="#FFB7B7"/>
<path d="M50.7338 45.9667L49.8265 43.7966L50.1804 42.2849L50.5616 41.7951C50.5895 41.783 50.6196 41.7769 50.65 41.7771C50.6804 41.7774 50.7104 41.7841 50.7381 41.7968C50.8787 41.8543 50.9984 42.0307 51.094 42.321L51.9442 44.7839L50.7338 45.9667Z" fill="#2F2E41"/>
<path d="M46.0269 39.5438V37.9077C46.0269 37.3262 46.254 36.7686 46.6583 36.3574C47.0626 35.9463 47.6109 35.7153 48.1827 35.7153C48.7545 35.7153 49.3028 35.9463 49.7071 36.3574C50.1114 36.7686 50.3386 37.3262 50.3386 37.9077V39.5438C50.3385 39.6218 50.3079 39.6967 50.2536 39.7519C50.1994 39.8071 50.1258 39.8382 50.049 39.8383H46.3164C46.2397 39.8382 46.1661 39.8071 46.1118 39.7519C46.0575 39.6967 46.0269 39.6218 46.0269 39.5438V39.5438Z" fill="#2F2E41"/>
<path d="M47.7397 39.8002C48.6126 39.8002 49.3203 39.0805 49.3203 38.1928C49.3203 37.3051 48.6126 36.5854 47.7397 36.5854C46.8668 36.5854 46.1591 37.3051 46.1591 38.1928C46.1591 39.0805 46.8668 39.8002 47.7397 39.8002Z" fill="#FFB7B7"/>
<path d="M45.5168 38.0385C45.5174 37.5787 45.6972 37.1379 46.0169 36.8128C46.3366 36.4877 46.7701 36.3048 47.2222 36.3043H47.544C47.9961 36.3048 48.4296 36.4877 48.7493 36.8128C49.069 37.1379 49.2488 37.5787 49.2493 38.0385V38.0713H48.5693L48.3374 37.4108L48.291 38.0713H47.9396L47.8226 37.738L47.7992 38.0713H45.5169L45.5168 38.0385Z" fill="#2F2E41"/>
<path d="M47.5842 40.0222C47.5523 39.9783 47.5332 39.926 47.5292 39.8715C47.5252 39.817 47.5364 39.7625 47.5615 39.7142C47.9025 39.0546 48.3799 37.8359 47.7462 37.0844L47.7007 37.0303H49.5404V39.8392L47.8691 40.1391C47.8522 40.1421 47.8351 40.1436 47.8179 40.1437C47.7723 40.1437 47.7273 40.1327 47.6867 40.1115C47.646 40.0904 47.6109 40.0598 47.5842 40.0222V40.0222Z" fill="#2F2E41"/>
<path d="M26.1237 64.9222L27.0999 65.277L28.9103 61.6164L27.4694 61.0928L26.1237 64.9222Z" fill="#9F616A"/>
<path d="M25.5364 65.7941L25.9885 64.5076L27.9111 65.2063C28.2359 65.3248 28.5011 65.5694 28.6487 65.8865C28.7963 66.2035 28.8143 66.5672 28.6985 66.8977L28.6843 66.9382L25.5364 65.7941Z" fill="#2F2E41"/>
<path d="M32.4721 65.9042L33.5088 65.9041L34.0021 61.8375L32.4719 61.8376L32.4721 65.9042Z" fill="#9F616A"/>
<path d="M32.2076 65.56L34.2493 65.5599H34.2494C34.4203 65.5599 34.5895 65.5941 34.7473 65.6606C34.9052 65.7271 35.0486 65.8246 35.1694 65.9475C35.2903 66.0703 35.3861 66.2162 35.4515 66.3767C35.5169 66.5373 35.5506 66.7093 35.5506 66.8831V66.9261L32.2076 66.9262L32.2076 65.56Z" fill="#2F2E41"/>
<path d="M30.1093 39.9234L30.5602 39.0174C30.5602 39.0174 32.2399 39.4453 32.3926 40.4353L30.1093 39.9234Z" fill="#F1F1F1"/>
<path d="M28.2489 50.2831L29.475 57.2415L26.2192 63.0968L28.1642 63.8708L31.4623 58.1949L31.8851 56.6469L32.1388 64.7308L33.893 64.6766L34.6972 57.1283L33.4072 50.1111L28.2489 50.2831Z" fill="#2F2E41"/>
<path d="M30.5764 51.9281C28.7751 51.9281 27.6314 51.5777 27.6058 51.5721L27.5643 51.5632L28.5026 47.1394L28.5448 43.0588C28.5448 41.3296 29.6639 40.0548 29.8192 39.9371C29.8454 39.8322 29.8938 39.7343 29.961 39.6503C30.0282 39.5663 30.1126 39.4982 30.2083 39.4509C30.5816 39.2786 31.0378 39.4853 31.057 39.4942L32.4261 40.0162L32.4326 40.0356C32.4491 40.085 34.2525 46.1056 34.2525 46.1056C34.2525 46.1056 34.1433 51.3661 34.1053 51.5384C34.1053 51.5384 31.5773 51.9281 30.5764 51.9281Z" fill="#3F3D56"/>
<path d="M31.9606 38.7321C32.9826 38.7321 33.8111 37.8895 33.8111 36.8502C33.8111 35.8109 32.9826 34.9683 31.9606 34.9683C30.9386 34.9683 30.11 35.8109 30.11 36.8502C30.11 37.8895 30.9386 38.7321 31.9606 38.7321Z" fill="#9F616A"/>
<path opacity="0.2" d="M29.8973 43.3926L33.1348 47.9862L33.6129 45.841L29.8973 43.3926Z" fill="black"/>
<path d="M40.0475 46.5181C39.9564 46.5913 39.8507 46.6434 39.7377 46.6706C39.6248 46.6978 39.5073 46.6995 39.3936 46.6755C39.2799 46.6515 39.1728 46.6025 39.0798 46.5319C38.9867 46.4613 38.9101 46.3707 38.8551 46.2667L36.0685 46.7203L36.6722 45.3612L39.2259 45.1388C39.4038 45.0566 39.6053 45.0436 39.792 45.1023C39.9788 45.161 40.1378 45.2873 40.2391 45.4574C40.3404 45.6274 40.3768 45.8293 40.3415 46.0248C40.3062 46.2203 40.2016 46.3958 40.0475 46.5181H40.0475Z" fill="#9F616A"/>
<path d="M36.8157 45.2838L37.8169 45.184L38.0944 46.6043L36.8345 46.627L36.8157 45.2838Z" fill="#F1F1F1"/>
<path d="M37.6365 47.0993L32.7328 46.6553L30.2567 42.6507L30.2491 42.6153C30.1788 42.2882 30.228 41.9462 30.3875 41.6533C30.547 41.3603 30.8059 41.1365 31.1158 41.0234C31.4257 40.9104 31.7655 40.9159 32.0718 41.039C32.378 41.162 32.6297 41.3942 32.7799 41.6922L34.2334 44.5754L37.1669 45.0264L37.6365 47.0993Z" fill="#3F3D56"/>
<path d="M30.3844 38.4841L31.9204 38.5402C32.014 38.5436 32.2681 37.5161 32.3013 37.3029C32.3276 37.1641 32.4027 37.0398 32.5125 36.9532C32.6223 36.8666 32.7594 36.8236 32.8981 36.8323C33.0131 36.8433 33.303 36.6249 33.6022 36.3662C34.1702 35.8752 34.1406 34.9529 33.5167 34.5379C33.4996 34.5266 33.4829 34.5162 33.4665 34.5068C33.0729 34.2828 32.6124 34.2076 32.1614 34.2018C31.7525 34.1966 31.332 34.249 30.9718 34.4458C30.326 34.7986 29.9823 35.5696 29.9521 36.3145C29.922 37.0594 30.1568 37.7878 30.4232 38.4823" fill="#2F2E41"/>
<path d="M68.8876 67H9.08043C9.0591 67 9.03864 66.9914 9.02356 66.9761C9.00847 66.9607 9 66.9399 9 66.9182C9 66.8965 9.00847 66.8757 9.02356 66.8604C9.03864 66.845 9.0591 66.8364 9.08043 66.8364H68.9196C68.9409 66.8364 68.9614 66.845 68.9764 66.8604C68.9915 66.8757 69 66.8965 69 66.9182C69 66.9634 68.932 67 68.8876 67Z" fill="#CBCBCB"/>
</g>
<defs>
<clipPath id="clip0_134_121">
<rect width="60" height="59" fill="white" transform="translate(9 8)"/>
</clipPath>
</defs>
</svg>
