<svg width="24" height="19" viewBox="0 0 24 19" fill="none" xmlns="http://www.w3.org/2000/svg">
<path d="M21.8125 7H17.6289C18.0508 8.05469 17.875 9.32031 17.0312 10.1641L12.25 14.9453V16.5625C12.25 17.5117 12.9883 18.25 13.9375 18.25H21.8125C22.7266 18.25 23.5 17.5117 23.5 16.5625V8.6875C23.5 7.77344 22.7266 7 21.8125 7ZM17.875 13.4688C17.3828 13.4688 17.0312 13.1172 17.0312 12.625C17.0312 12.168 17.3828 11.7812 17.875 11.7812C18.332 11.7812 18.7188 12.168 18.7188 12.625C18.7188 13.1172 18.332 13.4688 17.875 13.4688ZM16.2227 6.92969L10.0703 0.777344C9.40234 0.109375 8.3125 0.109375 7.64453 0.777344L1.49219 6.92969C0.824219 7.59766 0.824219 8.6875 1.49219 9.35547L7.64453 15.5078C8.3125 16.1758 9.40234 16.1758 10.0703 15.5078L16.2227 9.35547C16.8906 8.6875 16.8906 7.59766 16.2227 6.92969ZM4.375 8.96875C3.88281 8.96875 3.53125 8.61719 3.53125 8.125C3.53125 7.66797 3.88281 7.28125 4.375 7.28125C4.83203 7.28125 5.21875 7.66797 5.21875 8.125C5.21875 8.61719 4.83203 8.96875 4.375 8.96875ZM8.875 13.4688C8.38281 13.4688 8.03125 13.1172 8.03125 12.625C8.03125 12.168 8.38281 11.7812 8.875 11.7812C9.33203 11.7812 9.71875 12.168 9.71875 12.625C9.71875 13.1172 9.33203 13.4688 8.875 13.4688ZM8.875 8.96875C8.38281 8.96875 8.03125 8.61719 8.03125 8.125C8.03125 7.66797 8.38281 7.28125 8.875 7.28125C9.33203 7.28125 9.71875 7.66797 9.71875 8.125C9.71875 8.61719 9.33203 8.96875 8.875 8.96875ZM8.875 4.46875C8.38281 4.46875 8.03125 4.11719 8.03125 3.625C8.03125 3.16797 8.38281 2.78125 8.875 2.78125C9.33203 2.78125 9.71875 3.16797 9.71875 3.625C9.71875 4.11719 9.33203 4.46875 8.875 4.46875ZM13.375 8.96875C12.8828 8.96875 12.5312 8.61719 12.5312 8.125C12.5312 7.66797 12.8828 7.28125 13.375 7.28125C13.832 7.28125 14.2188 7.66797 14.2188 8.125C14.2188 8.61719 13.832 8.96875 13.375 8.96875Z" fill="#6AB089"/>
</svg>
