<svg width="25" height="25" viewBox="0 0 25 25" fill="none" xmlns="http://www.w3.org/2000/svg">
<path d="M10.75 4.25H4.5C3.83696 4.25 3.20107 4.51339 2.73223 4.98223C2.26339 5.45107 2 6.08696 2 6.75V20.5C2 21.163 2.26339 21.7989 2.73223 22.2678C3.20107 22.7366 3.83696 23 4.5 23H18.25C18.913 23 19.5489 22.7366 20.0178 22.2678C20.4866 21.7989 20.75 21.163 20.75 20.5V14.25L10.75 4.25ZM18.9825 2.4825C19.2131 2.24373 19.489 2.05327 19.794 1.92225C20.099 1.79122 20.427 1.72226 20.759 1.71937C21.0909 1.71649 21.4201 1.77974 21.7274 1.90545C22.0346 2.03115 22.3138 2.21678 22.5485 2.45151C22.7832 2.68624 22.9689 2.96537 23.0946 3.27262C23.2203 3.57986 23.2835 3.90906 23.2806 4.241C23.2777 4.57295 23.2088 4.901 23.0778 5.20601C22.9467 5.51102 22.7563 5.78688 22.5175 6.0175L11.785 16.75H8.25V13.215L18.9825 2.4825Z" stroke="#F5F5F5" stroke-width="2.5" stroke-linecap="round" stroke-linejoin="round"/>
</svg>
