<svg width="118" height="96" viewBox="0 0 118 96" fill="none" xmlns="http://www.w3.org/2000/svg">
<path d="M63.6893 95.6528H41.3306C41.1866 95.5108 41.0444 95.367 40.9041 95.2196C39.4315 93.6866 38.1699 91.9646 37.1527 90.0989C34.783 85.7373 33.8315 80.6676 35.1877 75.9583C35.2223 75.8381 35.257 75.718 35.2953 75.5978C35.3682 75.7089 35.4429 75.8199 35.5195 75.9291C36.5283 77.4147 37.6554 78.8167 38.8898 80.1214C38.9828 80.2234 39.0794 80.3253 39.1778 80.4254C42.1855 83.5394 45.7471 86.0673 49.6809 87.8799C50.5595 88.2858 51.4551 88.6529 52.3677 88.9812C53.0751 89.2378 53.7932 89.469 54.5168 89.6766C57.5555 90.5449 61.0261 91.1947 62.8253 93.7888C63.1307 94.2308 63.3748 94.7121 63.5507 95.2196C63.6036 95.3616 63.6492 95.5072 63.6893 95.6528Z" fill="#F0F0F0"/>
<path d="M57.8051 95.2196C57.9442 95.3561 58.0751 95.5008 58.197 95.6528H57.7559C57.6185 95.499 57.4711 95.3542 57.3148 95.2196C56.8266 94.7934 56.2374 94.4989 55.6031 94.364C55.1928 94.2829 54.7745 94.2487 54.3564 94.2621C53.5288 94.2803 52.6939 94.435 51.8773 94.5279C51.6713 94.5515 51.4654 94.5697 51.2612 94.5806C50.1959 94.6592 49.126 94.5084 48.1241 94.1383C46.8737 93.665 45.7508 92.8895 44.7373 92.0285C44.0847 91.4751 43.4601 90.8889 42.8635 90.27L42.6338 90.0297C38.9408 86.0855 36.37 81.2275 35.1876 75.9583C35.1639 75.8581 35.142 75.7562 35.1202 75.6543C35.0764 75.4449 35.4082 75.4158 35.4519 75.6233C35.4738 75.7252 35.4956 75.8272 35.5194 75.9291C35.998 78.0652 36.7126 80.1417 37.6502 82.1202C37.6958 82.2221 37.7432 82.3223 37.7942 82.4206C39.1192 85.1598 40.8619 87.677 42.9601 89.8823C42.9801 89.9059 43.002 89.9278 43.0257 89.9514C43.516 90.463 44.0258 90.9557 44.555 91.4296C45.5503 92.3197 46.6385 93.1353 47.8671 93.6759C48.8813 94.1181 49.9847 94.3181 51.0899 94.2603C51.1992 94.2566 51.3104 94.2493 51.4216 94.2402C51.5091 94.233 51.5966 94.2257 51.6859 94.2166C52.5208 94.1274 53.3629 93.9708 54.2069 93.9362C54.5891 93.9184 54.9722 93.9342 55.3516 93.9836C56.2827 94.1166 57.1446 94.5508 57.8051 95.2196Z" fill="white"/>
<path d="M42.9873 90.17C42.1794 90.8492 41.156 91.2195 40.0999 91.2148C39.0439 91.21 38.0239 90.8306 37.2221 90.1442C37.0603 90.0047 37.2697 89.7472 37.4317 89.8868C38.1771 90.5274 39.1273 90.8807 40.1107 90.8831C41.0941 90.8855 42.046 90.5368 42.7946 89.8999C42.9574 89.7617 43.1492 90.0326 42.9873 90.17V90.17Z" fill="white"/>
<path d="M51.0799 94.3619C51.2838 92.2155 50.6702 90.0713 49.3614 88.3568C49.2316 88.187 49.5022 87.9948 49.6319 88.1643C50.9905 89.9511 51.6246 92.1838 51.4074 94.4168C51.3866 94.6296 51.0591 94.5735 51.0799 94.3619Z" fill="white"/>
<path d="M37.5599 82.1734C37.9273 81.9757 38.2398 81.6899 38.4693 81.3417C38.6988 80.9935 38.8381 80.5939 38.8747 80.1787C38.8928 79.9657 39.2202 80.022 39.2022 80.2336C39.1596 80.6922 39.0052 81.1333 38.7525 81.5186C38.4998 81.9038 38.1565 82.2214 37.7526 82.4436C37.7162 82.4677 37.6721 82.4771 37.6291 82.4699C37.586 82.4627 37.5474 82.4394 37.521 82.4047C37.4956 82.3688 37.4855 82.3244 37.4928 82.2811C37.5001 82.2378 37.5242 82.1991 37.5599 82.1734Z" fill="white"/>
<path d="M69.8012 95.5163L69.7009 95.6528H55.0509C54.9762 95.509 54.9015 95.3652 54.8285 95.2196C54.6663 94.9028 54.509 94.5837 54.3564 94.2621C54.3054 94.1565 54.2526 94.0491 54.207 93.938V93.9362C53.4593 92.3382 52.8441 90.6815 52.3677 88.983V88.9812C52.109 88.0508 51.8979 87.1078 51.7352 86.156C51.3194 83.6947 51.2941 81.1834 51.6605 78.7143C51.6623 78.7016 51.6641 78.6888 51.666 78.6761C52.4042 73.7684 54.701 69.1501 58.62 66.2048C58.6218 66.2029 58.6218 66.2029 58.6237 66.2029C58.7239 66.1265 58.8223 66.0555 58.9226 65.9809C58.9153 66.1137 58.908 66.243 58.9025 66.3759V66.3831C58.8107 68.1752 58.865 69.9718 59.0648 71.755V71.7569C59.0775 71.8952 59.094 72.0336 59.1103 72.1719V72.1737C59.6373 76.4664 60.9575 80.6242 63.0039 84.4357C63.0038 84.436 63.0039 84.4362 63.004 84.4364C63.0041 84.4367 63.0042 84.4369 63.0044 84.437C63.0046 84.4372 63.0048 84.4373 63.005 84.4374C63.0052 84.4375 63.0055 84.4376 63.0057 84.4375C63.8198 85.9536 64.7491 87.4051 65.7855 88.7791C67.2164 90.6796 68.9189 92.6237 69.6189 94.8191C69.6627 94.952 69.7009 95.0849 69.7355 95.2196C69.7592 95.3179 69.7811 95.418 69.8012 95.5163Z" fill="#F0F0F0"/>
<path d="M65.1147 95.6528H64.7756C64.7684 95.5072 64.7556 95.3634 64.7355 95.2196C64.6395 94.4635 64.3225 93.7525 63.8241 93.1753C62.9947 92.2306 61.8153 91.6935 60.7508 91.0673C60.5722 90.9618 60.3972 90.8525 60.2277 90.7379C59.3282 90.1612 58.5641 89.3975 57.9874 88.4988C57.2765 87.3683 56.8482 86.0741 56.5565 84.778C56.3689 83.9424 56.2241 83.0979 56.1227 82.2476C56.1063 82.1384 56.0935 82.0274 56.0826 81.9163C55.5096 76.5459 56.3869 71.1202 58.6236 66.2029C58.6637 66.1082 58.7075 66.0136 58.7512 65.9208C58.8405 65.7278 59.123 65.9044 59.0319 66.0955C58.9882 66.1883 58.9444 66.283 58.9025 66.3758C57.9972 68.3711 57.3156 70.4603 56.87 72.6052C56.8464 72.7144 56.8245 72.8236 56.8044 72.931C56.2117 75.9135 56.085 78.9697 56.4289 81.991C56.4326 82.0274 56.4362 82.062 56.4399 82.0965C56.5255 82.7992 56.6361 83.497 56.7716 84.19C57.0304 85.4988 57.4078 86.804 58.0622 87.9745C58.6053 88.9363 59.3655 89.7584 60.2824 90.3756C60.3735 90.4411 60.4665 90.503 60.5613 90.5631C60.636 90.6104 60.7107 90.6578 60.7872 90.7033C61.8336 91.3295 62.9765 91.8501 63.8514 92.7202C64.5244 93.3954 64.9539 94.2744 65.0727 95.2196C65.0941 95.3632 65.1081 95.5078 65.1147 95.6528Z" fill="white"/>
<path d="M56.2798 82.2414C55.2252 82.298 54.1849 81.9783 53.3445 81.3396C52.5041 80.7008 51.9185 79.7845 51.6922 78.7544C51.6471 78.5458 51.9696 78.466 52.0147 78.6749C52.2237 79.6346 52.7693 80.488 53.553 81.0813C54.3368 81.6745 55.3071 81.9684 56.2888 81.9099C56.5021 81.8974 56.4919 82.229 56.2798 82.2414Z" fill="white"/>
<path d="M60.214 90.4541C61.6708 88.863 62.4736 86.7821 62.4622 84.6262C62.4609 84.4126 62.7929 84.4218 62.7942 84.6351C62.8018 86.8786 61.962 89.0425 60.4424 90.6949C60.2974 90.8523 60.0698 90.6106 60.214 90.4541Z" fill="white"/>
<path d="M56.7672 72.5932C57.1798 72.6562 57.6016 72.6159 57.9947 72.4759C58.3879 72.3359 58.74 72.1006 59.0196 71.7911C59.1625 71.6319 59.39 71.8738 59.248 72.0319C58.9375 72.3724 58.5483 72.6318 58.1143 72.7875C57.6802 72.9431 57.2146 72.9902 56.7582 72.9248C56.7146 72.9222 56.6737 72.9031 56.6437 72.8715C56.6137 72.8399 56.5969 72.798 56.5967 72.7545C56.5981 72.7106 56.6168 72.669 56.6487 72.6388C56.6806 72.6086 56.7232 72.5922 56.7672 72.5932H56.7672Z" fill="white"/>
<path d="M68.6346 91.1303H66.2981L65.1868 82.1306L68.635 82.1307L68.6346 91.1303Z" fill="#9E616A"/>
<path d="M69.8914 95.5606H68.2335L67.9376 93.9975L67.1797 95.5606H62.7827C62.5719 95.5606 62.3666 95.4933 62.1969 95.3686C62.0271 95.2439 61.9017 95.0682 61.839 94.8673C61.7762 94.6663 61.7795 94.4506 61.8482 94.2516C61.9169 94.0527 62.0476 93.8808 62.221 93.7612L65.7324 91.3394V89.7592L69.4257 89.9793L69.8914 95.5606Z" fill="#2F2E41"/>
<path d="M90.3299 88.8084L88.2614 89.893L83.0879 82.4409L86.1411 80.8401L90.3299 88.8084Z" fill="#9E616A"/>
<path d="M93.5052 92.1474L92.0374 92.917L91.0477 91.6704L91.1043 93.4062L87.2113 95.4476C87.0247 95.5454 86.8116 95.5811 86.6032 95.5495C86.3949 95.5179 86.2021 95.4206 86.053 95.2718C85.9039 95.123 85.8064 94.9305 85.7746 94.7224C85.7428 94.5144 85.7785 94.3016 85.8764 94.1152L87.8579 90.3408L87.1223 88.9417L90.4948 87.422L93.5052 92.1474Z" fill="#2F2E41"/>
<path d="M59.7052 4.91919V12.3912C61.4347 11.9297 63.215 11.6855 65.0051 11.6643C66.2591 11.6518 67.5115 11.756 68.7461 11.9756C69.3619 12.083 69.9854 12.2216 70.6167 12.3912C71.9401 9.61257 72.3578 7.0316 70.6167 4.91919C70.6168 4.32632 70.4999 3.73925 70.2728 3.19149C70.0456 2.64374 69.7127 2.14604 69.2929 1.72682C68.8731 1.30761 68.3747 0.975085 67.8262 0.748251C67.2777 0.521417 66.6899 0.404717 66.0962 0.404816H64.2257C63.632 0.404717 63.0441 0.521417 62.4956 0.748251C61.9471 0.975085 61.4488 1.30761 61.029 1.72682C60.6092 2.14604 60.2762 2.64374 60.0491 3.19149C59.822 3.73925 59.7051 4.32632 59.7052 4.91919Z" fill="#2F2E41"/>
<path d="M82.5137 84.4369L71.073 64.5983C70.9685 64.4154 70.9146 64.208 70.9168 63.9974C70.9191 63.7868 70.9774 63.5807 71.0858 63.4L75.9568 55.2927C76.0723 55.1003 76.24 54.9447 76.4406 54.8438C76.6411 54.7428 76.8662 54.7008 77.0897 54.7224C77.3132 54.7441 77.5259 54.8287 77.7033 54.9663C77.8806 55.1039 78.0152 55.2889 78.0915 55.4998L87.9243 81.9022C88.0257 82.1794 88.0195 82.4845 87.9069 82.7574C87.7942 83.0302 87.5834 83.2511 87.3159 83.3765L84.0527 84.9201C83.8952 84.9945 83.7232 85.0331 83.5489 85.033C83.3391 85.0333 83.1329 84.9784 82.9512 84.8737C82.7694 84.7691 82.6185 84.6184 82.5137 84.4369Z" fill="#2F2E41"/>
<path d="M68.8554 88.5213L64.0174 87.964C63.8608 87.9459 63.7093 87.8969 63.5719 87.8197C63.4345 87.7426 63.3138 87.639 63.2169 87.5148C63.1201 87.3906 63.0489 87.2484 63.0076 87.0965C62.9664 86.9445 62.9558 86.7859 62.9765 86.6298L67.2944 54.1631C67.3094 54.05 67.3033 53.9351 67.2764 53.8242L62.9365 35.943C62.8955 35.778 62.8908 35.6062 62.9229 35.4393C62.955 35.2724 63.023 35.1145 63.1223 34.9765C63.7953 34.05 66.1012 31.8907 72.9603 31.8498H72.9677C73.1961 31.8498 73.4197 31.9154 73.6119 32.0387C73.804 32.1621 73.9567 32.338 74.0515 32.5455L74.9665 34.5556C75.0346 34.7048 75.1412 34.8333 75.2753 34.9279C76.5347 35.8182 82.6356 40.8152 79.0533 51.7861C75.5324 62.5692 71.0212 83.5034 70.1526 87.5904C70.0972 87.856 69.9518 88.0944 69.7409 88.2654C69.53 88.4365 69.2664 88.5297 68.9947 88.5293C68.9482 88.5293 68.9016 88.5266 68.8554 88.5213Z" fill="#2F2E41"/>
<path d="M63.2033 11.5829C65.8721 11.5829 68.0355 9.42239 68.0355 6.75723C68.0355 4.09206 65.8721 1.93152 63.2033 1.93152C60.5345 1.93152 58.3711 4.09206 58.3711 6.75723C58.3711 9.42239 60.5345 11.5829 63.2033 11.5829Z" fill="#9E616A"/>
<path d="M63.3246 34.7168L63.3776 33.9992C63.3402 33.9805 63.3028 33.9602 63.2638 33.9369C61.0955 32.6813 58.3443 26.2389 56.6175 21.6809C56.1649 20.4832 56.1678 19.1614 56.6257 17.9658C57.0835 16.7701 57.9645 15.7837 59.1018 15.1932L59.1028 15.1927C59.146 15.1735 59.1829 15.1426 59.2095 15.1036L67.1833 13.5924C67.2177 13.5782 67.2549 13.5718 67.2921 13.5736L72.1775 13.8088C72.83 13.8402 73.4544 14.0838 73.9556 14.5023C74.4568 14.9208 74.8073 15.4915 74.9537 16.1273L76.5401 29.5147C76.5455 29.5389 76.4773 29.8065 76.4897 29.8279C76.5109 29.8646 76.5504 29.9326 76.6069 30.0296C76.755 30.2849 77.1262 32.007 77.4753 32.6281C76.7134 34.9406 66.7198 34.3405 63.3246 34.7168Z" fill="#E4E4E4"/>
<path opacity="0.1" d="M71.0934 21.9348L72.9639 28.94L69.5347 34.2327L71.0934 28.94V21.9348Z" fill="black"/>
<path d="M57.9034 36.0228L64.7621 41.0042L67.1002 39.9145L61.9563 35.5558L57.9034 36.0228Z" fill="#9E616A"/>
<path d="M60.2416 29.7961L63.515 36.1785L54.9418 37.4239C54.9418 37.4239 55.877 19.2107 56.3447 17.9653C56.5998 17.3782 56.9284 16.8256 57.3226 16.321C57.6513 15.8796 58.106 15.5477 58.6269 15.3689C59.1478 15.1901 59.7106 15.1727 60.2416 15.319V29.7961Z" fill="#E4E4E4"/>
<path d="M66.7196 43.6805C67.8388 43.6805 68.7461 42.7745 68.7461 41.6569C68.7461 40.5392 67.8388 39.6332 66.7196 39.6332C65.6005 39.6332 64.6932 40.5392 64.6932 41.6569C64.6932 42.7745 65.6005 43.6805 66.7196 43.6805Z" fill="#9E616A"/>
<path d="M85.0963 42.0074L43.4916 37.6928C43.1758 37.6601 42.8566 37.6898 42.5523 37.7802C42.2479 37.8706 41.9644 38.0201 41.7179 38.2199C41.4714 38.4198 41.2667 38.6662 41.1156 38.945C40.9644 39.2239 40.8697 39.5298 40.8369 39.8452L39.7978 49.8377C39.765 50.1531 39.7948 50.4719 39.8853 50.7758C39.9759 51.0797 40.1255 51.3629 40.3256 51.609C40.5258 51.8552 40.7725 52.0596 41.0517 52.2106C41.331 52.3615 41.6373 52.4561 41.9531 52.4889L42.5637 52.5522L45.7105 52.8785L83.5577 56.8034C83.8736 56.8362 84.1928 56.8065 84.4971 56.7161C84.8014 56.6256 85.085 56.4762 85.3315 56.2763C85.578 56.0765 85.7827 55.8301 85.9338 55.5512C86.085 55.2724 86.1797 54.9665 86.2125 54.6511L87.2515 44.6586C87.2843 44.3432 87.2546 44.0244 87.164 43.7205C87.0735 43.4166 86.9239 43.1334 86.7237 42.8872C86.5236 42.6411 86.2769 42.4366 85.9976 42.2857C85.7184 42.1347 85.4121 42.0402 85.0963 42.0074Z" fill="#CACACA"/>
<path d="M83.6846 55.5847L42.08 51.2701C41.7659 51.2372 41.4778 51.0812 41.2788 50.8364C41.0798 50.5916 40.9862 50.278 41.0185 49.9643L42.0575 39.9717C42.0905 39.6581 42.2467 39.3704 42.4918 39.1717C42.7369 38.9729 43.051 38.8794 43.365 38.9116L74.9638 42.1886C77.9303 42.4996 80.6522 43.9731 82.5322 46.2858C84.4122 48.5984 85.2969 51.5614 84.9921 54.5246C84.9591 54.8382 84.803 55.1259 84.5578 55.3246C84.3127 55.5234 83.9987 55.6169 83.6846 55.5847Z" fill="white"/>
<path d="M72.7684 44.1701L55.199 42.348C54.7646 42.303 54.3758 42.6182 54.3307 43.0521L54.3307 43.0521C54.2855 43.486 54.6012 43.8743 55.0356 43.9193L72.605 45.7413C73.0395 45.7864 73.4283 45.4712 73.4734 45.0373C73.5185 44.6034 73.2029 44.2151 72.7684 44.1701Z" fill="#6AB089"/>
<path d="M76.1784 47.7001L51.1356 45.103C50.7011 45.058 50.3123 45.3732 50.2672 45.8071C50.2221 46.241 50.5377 46.6293 50.9722 46.6743L76.0151 49.2714C76.4495 49.3164 76.8383 49.0012 76.8834 48.5673C76.9285 48.1334 76.6129 47.7452 76.1784 47.7001Z" fill="#E6E6E6"/>
<path d="M75.8518 50.8426L50.8088 48.2456C50.3743 48.2005 49.9855 48.5157 49.9404 48.9496C49.8953 49.3835 50.2109 49.7718 50.6454 49.8168L75.6884 52.4139C76.1228 52.4589 76.5116 52.1437 76.5567 51.7098C76.6019 51.2759 76.2862 50.8877 75.8518 50.8426Z" fill="#E6E6E6"/>
<path d="M71.0156 34.6218L65.8716 38.9805L68.2098 40.0702L75.0684 35.0888L71.0156 34.6218Z" fill="#9E616A"/>
<path d="M72.7302 14.385C73.2612 14.2387 73.8241 14.2561 74.345 14.4349C74.8659 14.6137 75.3205 14.9456 75.6492 15.387C76.0435 15.8916 76.372 16.4442 76.6272 17.0313C77.0948 18.2767 78.03 36.4898 78.03 36.4898L69.4568 35.2445L72.7302 28.8621L72.7302 14.385Z" fill="#E4E4E4"/>
<path d="M66.252 42.7465C67.3712 42.7465 68.2784 41.8405 68.2784 40.7229C68.2784 39.6052 67.3712 38.6992 66.252 38.6992C65.1328 38.6992 64.2256 39.6052 64.2256 40.7229C64.2256 41.8405 65.1328 42.7465 66.252 42.7465Z" fill="#9E616A"/>
<path d="M62.511 1.49449H68.1226V4.14085H68.7461V11.9756C67.5115 11.756 66.2591 11.6518 65.0051 11.6643C65.5028 9.82846 65.6673 8.21716 65.5626 6.78721H60.7195C60.5216 6.32618 60.4495 5.821 60.5106 5.32312C60.1802 5.74729 59.9722 6.25354 59.9088 6.78721H57.2112V6.7872C57.2112 6.09215 57.3483 5.40391 57.6146 4.76177C57.8809 4.11962 58.2713 3.53616 58.7635 3.04468C59.2556 2.55321 59.8399 2.16335 60.4829 1.89737C61.1259 1.63139 61.815 1.49449 62.511 1.49449Z" fill="#2F2E41"/>
<path d="M118.423 95.4362C118.423 95.4647 118.418 95.4929 118.407 95.5192C118.396 95.5455 118.38 95.5695 118.36 95.5896C118.34 95.6097 118.316 95.6257 118.289 95.6365C118.263 95.6474 118.235 95.6529 118.206 95.6528H0.21691C0.159381 95.6528 0.104212 95.63 0.0635328 95.5894C0.0228532 95.5488 0 95.4937 0 95.4362C0 95.3787 0.0228532 95.3236 0.0635328 95.283C0.104212 95.2424 0.159381 95.2196 0.21691 95.2196H118.206C118.235 95.2195 118.263 95.225 118.289 95.2359C118.316 95.2467 118.34 95.2627 118.36 95.2828C118.38 95.303 118.396 95.3269 118.407 95.3532C118.418 95.3795 118.423 95.4077 118.423 95.4362Z" fill="#CACACA"/>
<path d="M32.6229 46.1788C34.133 46.1788 35.3571 44.9563 35.3571 43.4483C35.3571 41.9403 34.133 40.7177 32.6229 40.7177C31.1128 40.7177 29.8887 41.9403 29.8887 43.4483C29.8887 44.9563 31.1128 46.1788 32.6229 46.1788Z" fill="#F0F0F0"/>
</svg>
