<svg width="69" height="29" viewBox="0 0 69 29" fill="none" xmlns="http://www.w3.org/2000/svg">
<path d="M20.9333 5.25V23H19.2083V14.7H8.68331V23H6.93331V5.25H8.68331V13.15H19.2083V5.25H20.9333Z" fill="#6AB089"/>
<path d="M30.8903 5.25H32.3653L39.7403 23H37.8903L35.5903 17.45H27.6153L25.3403 23H23.4653L30.8903 5.25ZM35.1903 16.075L31.6153 7.3L27.9903 16.075H35.1903ZM42.2849 23V5.275H44.0349V15.575L53.8099 5.25H55.7349L48.4849 13.05L56.1099 23H54.1349L47.3599 14.1L44.0349 17.55V23H42.2849ZM58.3493 23V5.25H60.0993V23H58.3493Z" fill="white"/>
<rect y="24" width="69" height="1" fill="#6AB089"/>
</svg>
