<svg width="54" height="41" viewBox="0 0 54 41" fill="none" xmlns="http://www.w3.org/2000/svg">
<path d="M21.398 12.7909C21.2734 12.541 21.2269 12.2592 21.1819 11.9828C20.9177 10.3507 20.6706 8.58878 21.388 7.1097C21.501 6.87704 21.6381 6.65077 21.8382 6.4919C22.0523 6.3222 22.3179 6.24153 22.566 6.13135C23.2864 5.81261 23.8667 5.24055 24.5 4.76589C25.1333 4.29123 25.8977 3.89526 26.6736 4.01626C27.0738 4.07873 27.4439 4.27549 27.8321 4.39895C28.9287 4.74818 30.1943 4.52044 31.1793 5.12595C31.535 5.34483 31.8251 5.65718 32.1103 5.96608L33.3824 7.34334C33.7271 7.71619 34.0782 8.09838 34.2868 8.56566C34.4954 9.03295 34.5395 9.60894 34.2738 10.0447C34.1403 10.2646 33.9292 10.455 33.9061 10.7132C33.8811 10.9936 34.0882 11.2346 34.1638 11.5051C34.3639 12.2198 33.63 12.8332 32.9607 13.1156C30.9382 13.9665 28.7131 13.8686 26.572 13.8337C24.9777 13.8066 22.3174 14.6296 21.398 12.7909Z" fill="#3F3D56"/>
<path opacity="0.1" d="M53.1291 23.7792C52.9388 22.1446 52.385 20.5983 51.6629 19.2167C50.0331 16.0948 47.5633 13.7656 44.8936 12.0972C44.8679 12.0808 44.84 12.0654 44.8158 12.0495C45.1107 11.7152 45.3214 11.3206 45.4318 10.8961C46.2531 7.67578 40.7142 3.61659 33.0641 1.83069C26.9248 0.399298 21.2904 0.86514 18.8791 2.76955C13.2543 2.43095 7.38626 5.74315 3.48671 10.8448C2.09286 12.6708 0.913451 14.8276 0.39612 17.2661C-0.233255 20.2192 0.143083 23.3975 1.02603 26.2474C1.70634 28.4422 2.70025 30.4985 3.94989 32.2598C4.03888 32.3849 4.12913 32.5088 4.22062 32.6312C4.37823 32.8422 4.53906 33.0474 4.7031 33.2469C5.73241 34.5012 6.90431 35.5663 8.19308 36.3723C8.92529 36.8317 9.71142 37.2071 10.5353 37.4907C12.7333 38.2439 15.0921 38.2752 17.2643 37.4907C17.6284 37.3595 17.9836 37.2069 18.3279 37.0336C18.5188 36.9382 18.7075 36.8356 18.8941 36.7258C19.2538 36.5144 19.6071 36.2784 19.9577 36.0332C20.4439 35.6925 20.9226 35.3334 21.411 34.9979L21.4528 34.9686C22.0265 34.5746 22.6071 34.2139 23.2123 33.9543C23.6155 33.7767 24.0423 33.6529 24.4807 33.5865C25.1296 33.4982 25.7908 33.5474 26.4176 33.7307C26.5366 33.7635 26.6556 33.8009 26.7736 33.842C27.1571 33.9776 27.5285 34.1425 27.8844 34.335C29.4305 35.1559 30.9101 36.4647 32.4283 37.4907C32.6427 37.6375 32.8631 37.7786 33.0818 37.9114C35.0187 39.0878 37.1492 39.6614 39.2571 40.2176C41.647 40.8486 44.1763 41.4612 46.4885 40.4787C47.8287 39.9097 48.9893 38.8308 49.9195 37.4907C50.327 36.9001 50.6844 36.2792 50.9884 35.634C51.1396 35.3149 51.281 34.99 51.4125 34.6593C52.177 32.7353 52.6214 30.6216 52.928 28.5027C53.1553 26.9431 53.3097 25.346 53.1291 23.7792Z" fill="black"/>
<path d="M24.7483 16.4717C24.6053 16.8237 24.2979 17.0723 23.994 17.2911C23.6902 17.5099 23.366 17.7181 23 17.736C23.6449 18.5905 24.5269 19.219 25.3891 19.8344C25.7907 20.1203 26.1979 20.4057 26.656 20.5673C27.0764 20.7152 27.5238 20.7519 27.9635 20.8138C28.5234 20.8931 29.0807 21.0153 29.6431 20.9912C30.6453 20.9481 31.6037 20.4272 32.2684 19.6529C32.9331 18.8786 33.3139 17.8692 33.4167 16.8394C33.0604 16.8336 32.7316 16.6296 32.444 16.4071C32.0923 16.1359 31.7625 15.8222 31.5355 15.4345C31.2897 15.0148 31.1792 14.528 31.0672 14.0511C29.8808 14.0144 28.6944 13.9782 27.5075 14.0018C27.0754 14.0102 26.6422 14.0275 26.2208 14.1382C25.8192 14.2431 24.9804 14.5138 24.7356 14.8868C24.5946 15.1019 24.7356 15.3233 24.7865 15.5552C24.8516 15.86 24.8679 16.1784 24.7483 16.4717Z" fill="#BE6F72"/>
<path opacity="0.1" d="M24.7483 16.4717C24.6053 16.8237 24.2979 17.0723 23.994 17.2911C23.6902 17.5099 23.366 17.7181 23 17.736C23.6449 18.5905 24.5269 19.219 25.3891 19.8344C25.7907 20.1203 26.1979 20.4057 26.656 20.5673C27.0764 20.7152 27.5238 20.7519 27.9635 20.8138C28.5234 20.8931 29.0807 21.0153 29.6431 20.9912C30.6453 20.9481 31.6037 20.4272 32.2684 19.6529C32.9331 18.8786 33.3139 17.8692 33.4167 16.8394C33.0604 16.8336 32.7316 16.6296 32.444 16.4071C32.0923 16.1359 31.7625 15.8222 31.5355 15.4345C31.2897 15.0148 31.1792 14.528 31.0672 14.0511C29.8808 14.0144 28.6944 13.9782 27.5075 14.0018C27.0754 14.0102 26.6422 14.0275 26.2208 14.1382C25.8192 14.2431 24.9804 14.5138 24.7356 14.8868C24.5946 15.1019 24.7356 15.3233 24.7865 15.5552C24.8516 15.86 24.8679 16.1784 24.7483 16.4717Z" fill="black"/>
<path d="M26.0734 17.5362C26.4325 17.9705 26.8023 18.4136 27.2944 18.6985C27.4446 18.785 27.6125 18.8557 27.787 18.8499C28.0454 18.8394 28.2591 18.6603 28.4486 18.4885C29.3947 17.6316 30.2933 16.7263 31.1403 15.7763C31.4057 15.4783 31.6786 15.1676 32.042 14.9943C32.3704 17.8771 32.4561 20.7813 32.2983 23.6777C32.3 23.7324 32.287 23.7866 32.2606 23.8349C32.2041 23.9182 32.0856 23.9302 31.9828 23.9339C28.9439 24.0449 25.7832 24.134 23 22.9387C23.1933 22.3808 23.1615 21.7774 23.1803 21.1887C23.211 20.2233 23.3833 19.2674 23.6213 18.3314C23.7381 17.872 23.871 17.4168 24.0121 16.9643C24.1294 16.585 24.2188 15.9167 24.481 15.6302C25.0839 16.1539 25.5668 16.9234 26.0734 17.5362Z" fill="#E3E8F4"/>
<path d="M27.3899 18.9943H27.9107L29.25 20.5527L27.8363 22.9943L26.125 20.6047L27.3899 18.9943Z" fill="#3F3D56"/>
<path d="M27.5745 21.5488C27.2236 21.0495 26.9818 20.4852 26.864 19.891C26.8262 19.7007 26.8009 19.5068 26.7319 19.3249C26.6295 19.0552 26.4365 18.8292 26.2623 18.5964C25.6167 17.7328 25.2009 16.7264 25.0521 15.6676C24.9853 15.1872 24.9405 14.6369 24.5427 14.3462C24.2926 14.1638 23.9594 14.1359 23.6468 14.1412C22.4375 14.1707 21.2794 14.6226 20.3832 15.4148C20.2342 15.5589 20.0767 15.6944 19.9115 15.8206C19.7422 15.9334 19.5616 16.0292 19.3724 16.1065C18.8948 16.3167 18.3956 16.4913 17.8754 16.5443C17.7417 16.5498 17.6092 16.5711 17.4808 16.6079C17.3256 16.6605 17.1978 16.7714 17.0668 16.8708C16.6484 17.185 16.1676 17.4112 15.655 17.5351C14.9315 19.1732 14.3718 20.8755 13.9838 22.6185C13.8863 23.0521 13.7989 23.4889 13.6658 23.9136C13.482 24.5023 13.2113 25.0637 13.0307 25.6534C12.3127 28.0003 13.0669 30.5569 12.5833 32.9596L38.5161 32.9943C38.1085 32.3777 38.2552 31.5945 38.2201 30.8618C38.1872 30.1869 38.0115 29.5272 37.8897 28.8618C37.6859 27.7491 37.6336 26.6148 37.6126 25.4847C37.604 25.0074 37.6034 24.5144 37.7926 24.0744C38.1479 23.2487 39.0697 22.8129 39.9425 22.5328C40.3597 22.3993 40.7985 22.2773 41.1284 21.9919C41.4664 21.697 41.6422 21.2639 41.75 20.8355C41.1618 19.7054 40.3974 18.6279 39.432 17.7801C39.0692 17.4647 38.6816 17.1688 38.3754 16.7998C38.1889 16.5743 38.0341 16.3231 37.8282 16.1165C37.3129 15.5945 36.5344 15.398 35.7927 15.3691C35.5636 15.3601 35.3312 15.3643 35.1091 15.3086C34.4719 15.1509 34.066 14.5438 33.4919 14.2295C33.0924 14.0121 32.6261 13.9424 32.1782 14.0329C31.8547 14.0986 31.5237 14.2857 31.4509 14.5969C31.4105 14.7719 31.4601 14.9528 31.479 15.1309C31.5372 15.6792 31.3038 16.2164 31.0213 16.6936C30.0062 18.3972 28.3464 19.7265 27.5745 21.5488Z" fill="black"/>
<path d="M33.4166 11.4954C33.4164 12.7159 32.9932 13.9018 32.2137 14.8661C31.4343 15.8304 30.3428 16.5184 29.1113 16.8217C27.8797 17.125 26.578 17.0265 25.4112 16.5415C24.2445 16.0566 23.2789 15.2128 22.6665 14.1431C22.0542 13.0734 21.8299 11.8385 22.029 10.633C22.2281 9.42748 22.8393 8.31979 23.7662 7.48437C24.6932 6.64896 25.8833 6.1333 27.1491 6.0186C28.415 5.90391 29.6846 6.1967 30.758 6.85086C31.5728 7.3474 32.2437 8.03348 32.7085 8.84543C33.1732 9.65738 33.4168 10.5689 33.4166 11.4954Z" fill="#BE6F72"/>
<path d="M51.125 34.2874V31.9943H4.25C4.33789 32.1139 4.42702 32.2322 4.51738 32.3492C4.58567 32.4989 4.67912 32.6377 4.79428 32.7604C4.85562 32.8254 4.92294 32.8852 4.99548 32.9394C6.01204 34.1379 7.16943 35.1555 8.44225 35.9256C9.16539 36.3646 9.94179 36.7233 10.7554 36.9943H49.6515L51.125 34.2874Z" fill="#6AB089"/>
<path d="M28.5656 29.4312C27.8561 29.3798 27.1183 29.2189 26.45 29.4417C26.2222 29.5245 26.0061 29.6318 25.8064 29.7615C25.0846 30.2026 24.4198 30.7164 23.8246 31.2932C23.6526 31.4593 23.4842 31.6344 23.3786 31.8419C23.2296 32.1347 23.2165 32.4683 23.1172 32.7782C23.0602 32.9557 22.9734 33.1356 23.0079 33.3179C23.0424 33.5002 23.2735 33.6634 23.4466 33.5663C23.4379 33.6172 23.4417 33.6691 23.4576 33.7185C23.4736 33.7678 23.5013 33.8133 23.5388 33.8518C23.5763 33.8903 23.6227 33.9207 23.6746 33.941C23.7266 33.9612 23.7828 33.9708 23.8393 33.969C24.1039 33.9607 24.3594 33.8788 24.5713 33.7344C24.578 33.7921 24.609 33.8452 24.6577 33.8827C24.7064 33.9202 24.7691 33.9392 24.8327 33.9357C25.2861 33.9086 25.718 33.6977 26.106 33.4673C26.5614 33.1989 27.0137 32.8933 27.5471 32.801C27.2189 32.9372 26.9299 33.1407 26.7026 33.3955C26.6153 33.493 26.5337 33.6073 26.6299 33.7582C26.6874 33.8429 26.7759 33.9064 26.8799 33.9376C27.477 34.128 28.1259 33.8129 28.5243 33.376C28.6849 33.1994 28.8266 32.9952 29.0472 32.8881C29.4023 32.7144 29.8399 32.8362 30.2394 32.7858C30.6828 32.7306 31.0556 32.4674 31.463 32.2974C32.0052 32.0718 32.6097 32.0119 33.1885 31.8776C33.258 31.8684 33.322 31.8383 33.3705 31.792C33.4066 31.737 33.4222 31.6729 33.4149 31.6092C33.4123 30.9573 33.3583 30.3064 33.2533 29.6616C33.2446 29.5577 33.2097 29.457 33.1514 29.3674C33.0374 29.2199 32.8209 29.177 32.6259 29.1475C32.3121 29.0999 31.9602 28.9933 31.6444 28.9943C31.3411 28.9943 31.0488 29.1504 30.7597 29.227C30.0479 29.4151 29.3045 29.4843 28.5656 29.4312Z" fill="#BE6F72"/>
<path d="M32.3332 29.0132C31.5731 29.088 30.8581 29.3874 30.2917 29.8682C30.924 29.7186 31.6045 29.5709 32.2141 29.7875C32.5109 29.893 32.7677 30.0788 32.9517 30.3212C33.1358 30.5636 33.2388 30.8517 33.2479 31.1491C33.2569 31.4464 33.1714 31.7396 33.0024 31.9914C32.8333 32.2432 32.5882 32.4423 32.2982 32.5635C32.4215 32.6932 32.6025 32.7568 32.7825 32.8058C34.0832 33.1611 35.4757 32.9483 36.8058 32.706C37.0492 32.6618 37.3128 32.6034 37.4614 32.4158C37.5938 32.2462 37.5897 32.0177 37.578 31.8073C37.5441 31.1997 37.4878 30.5722 37.1937 30.0312C36.7951 29.2968 36.1029 29.0232 35.2693 29.1082C34.2886 29.206 33.315 28.9201 32.3332 29.0132Z" fill="#E3E8F4"/>
<path d="M40.5934 20.1754C41.0231 20.5917 41.333 21.1172 41.6175 21.647C42.5816 23.4405 43.3202 25.3503 43.8162 27.3315C43.8649 27.5262 43.9131 27.7262 44.0271 27.8902C44.193 28.1282 44.4744 28.2596 44.6553 28.4843C44.8724 28.7576 44.9144 29.1428 44.8429 29.4868C44.7714 29.8308 44.6009 30.1447 44.4283 30.4492C43.9561 31.2818 43.3989 32.1412 42.5318 32.5217C42.169 32.6799 41.7725 32.7454 41.3802 32.7976C39.9065 32.995 38.4173 33.044 36.9342 32.9438C37.1934 32.6377 37.2182 32.1861 37.1265 31.793C37.0348 31.3999 36.8435 31.0396 36.7119 30.6592C36.6082 30.3621 36.5351 30.0456 36.3532 29.7902C36.2191 29.6149 36.0538 29.4669 35.866 29.3539C35.4392 29.078 34.9591 28.8988 34.4583 28.8283C34.8299 28.5329 35.3114 28.4347 35.7644 28.3007C36.2174 28.1667 36.6911 27.9609 36.9285 27.5462C37.071 27.2977 37.1104 27.0028 37.1296 26.7158C37.1875 25.8521 37.0884 24.985 36.8373 24.1579C36.6704 23.6076 36.4341 23.0325 36.5781 22.4764C36.6517 22.1957 36.8171 21.9488 36.9793 21.7124C37.2955 21.2481 37.623 20.7727 38.0843 20.4593C38.4824 20.1886 38.9556 20.0615 39.4293 20.0277C39.7843 20.004 40.3239 19.9164 40.5934 20.1754Z" fill="black"/>
<path d="M21.9582 36.034C21.9534 36.4897 20.2579 36.9943 18.2959 36.9943C16.334 36.9943 14.6964 36.491 14.6701 36.034C14.5787 34.4491 16.3334 35.3413 18.2959 35.3413C20.2585 35.3413 21.9761 34.2094 21.9582 36.034Z" fill="#3F3D56"/>
<path opacity="0.2" d="M21.9582 36.034C21.9534 36.4897 20.2579 36.9943 18.2959 36.9943C16.334 36.9943 14.6964 36.491 14.6701 36.034C14.5787 34.4491 16.3334 35.3413 18.2959 35.3413C20.2585 35.3413 21.9761 34.2094 21.9582 36.034Z" fill="black"/>
<path d="M21.9584 34.8321C21.9584 35.3841 20.3257 35.9943 18.3125 35.9943C16.2993 35.9943 14.6667 35.3857 14.6667 34.8321C14.6667 34.2785 16.2987 33.9943 18.3125 33.9943C20.3263 33.9943 21.9584 34.2806 21.9584 34.8321Z" fill="#3F3D56"/>
<path opacity="0.1" d="M21.9584 34.8321C21.9584 35.3841 20.3257 35.9943 18.3125 35.9943C16.2993 35.9943 14.6667 35.3857 14.6667 34.8321C14.6667 34.2785 16.2987 33.9943 18.3125 33.9943C20.3263 33.9943 21.9584 34.2806 21.9584 34.8321Z" fill="white"/>
<path d="M20.9165 35.0348C20.9133 35.4913 19.7025 35.9943 18.3008 35.9943C16.8991 35.9943 15.7304 35.4902 15.7107 35.0348C15.6457 33.4486 16.8991 34.3414 18.3008 34.3414C19.7025 34.3414 20.9297 33.2089 20.9165 35.0348Z" fill="#3F3D56"/>
<path opacity="0.2" d="M20.9165 35.0348C20.9133 35.4913 19.7025 35.9943 18.3008 35.9943C16.8991 35.9943 15.7304 35.4902 15.7107 35.0348C15.6457 33.4486 16.8991 34.3414 18.3008 34.3414C19.7025 34.3414 20.9297 33.2089 20.9165 35.0348Z" fill="black"/>
<path d="M20.9166 33.8326C20.9166 34.3852 19.7511 34.9943 18.3128 34.9943C16.8744 34.9943 15.7083 34.3876 15.7083 33.8326C15.7083 33.2776 16.8744 32.9943 18.3128 32.9943C19.7511 32.9943 20.9166 33.2794 20.9166 33.8326Z" fill="#3F3D56"/>
<path opacity="0.1" d="M20.9166 33.8326C20.9166 34.3852 19.7511 34.9943 18.3128 34.9943C16.8744 34.9943 15.7083 34.3876 15.7083 33.8326C15.7083 33.2776 16.8744 32.9943 18.3128 32.9943C19.7511 32.9943 20.9166 33.2794 20.9166 33.8326Z" fill="white"/>
<path d="M12.035 36.9934C12.035 36.9934 12.5011 36.5915 12.5813 36.1398C12.6615 35.688 10.3036 34.9943 10.3036 34.9943C10.3036 34.9943 9.48592 35.3679 9.45831 35.7179C9.45831 35.7179 11.0235 37.0332 12.035 36.9934Z" fill="#3F3D56"/>
<path opacity="0.2" d="M12.035 36.9934C12.035 36.9934 12.5011 36.5915 12.5813 36.1398C12.6615 35.688 10.3036 34.9943 10.3036 34.9943C10.3036 34.9943 9.48592 35.3679 9.45831 35.7179C9.45831 35.7179 11.0235 37.0332 12.035 36.9934Z" fill="black"/>
<path d="M12.3935 37.2656C12.5398 37.031 12.0695 36.5007 11.3429 36.0812C10.6164 35.6617 9.90874 35.5118 9.76238 35.7464C9.61602 35.9811 10.0864 36.5113 10.8129 36.9308C11.5395 37.3504 12.2471 37.5002 12.3935 37.2656Z" fill="#3F3D56"/>
<path opacity="0.1" d="M12.3935 37.2656C12.5398 37.031 12.0695 36.5007 11.3429 36.0812C10.6164 35.6617 9.90874 35.5118 9.76238 35.7464C9.61602 35.9811 10.0864 36.5113 10.8129 36.9308C11.5395 37.3504 12.2471 37.5002 12.3935 37.2656Z" fill="white"/>
<path d="M13.1534 35.9943L14.6667 34.1277L13.1276 33.1605L11.9276 32.9943L11.5532 33.4938L10.5 34.9397L13.1534 35.9943Z" fill="#3F3D56"/>
<path opacity="0.1" d="M13.1534 35.9943L14.6667 34.1277L13.1276 33.1605L11.9276 32.9943L11.5532 33.4938L10.5 34.9397L13.1534 35.9943Z" fill="white"/>
<path d="M13.9694 33.9943C13.9694 33.9943 14.8572 32.9997 14.6293 32.4621C14.4013 31.9245 13.1976 30.847 12.4311 31.0111C11.6645 31.1751 11.5417 32.3666 11.5417 32.3666L13.9694 33.9943Z" fill="#3F3D56"/>
<path opacity="0.2" d="M13.9694 33.9943C13.9694 33.9943 14.8572 32.9997 14.6293 32.4621C14.4013 31.9245 13.1976 30.847 12.4311 31.0111C11.6645 31.1751 11.5417 32.3666 11.5417 32.3666L13.9694 33.9943Z" fill="black"/>
<path d="M3.57081 30.0438L10.9138 33.9943C10.9138 33.9943 11.6117 33.9142 11.5359 33.0877L4.26313 29.0945C4.11509 29.0131 3.9397 28.9798 3.76693 29.0001C3.568 29.0239 3.33254 29.088 3.25611 29.2555C3.23658 29.2982 3.223 29.3427 3.21565 29.3882C3.19512 29.5163 3.21789 29.6469 3.28108 29.7636C3.34428 29.8802 3.44509 29.9777 3.57081 30.0438Z" fill="#3F3D56"/>
<path opacity="0.2" d="M3.57081 30.0438L10.9138 33.9943C10.9138 33.9943 11.6117 33.9142 11.5359 33.0877L4.26313 29.0945C4.11509 29.0131 3.9397 28.9798 3.76693 29.0001C3.568 29.0239 3.33254 29.088 3.25611 29.2555C3.23658 29.2982 3.223 29.3427 3.21565 29.3882C3.19512 29.5163 3.21789 29.6469 3.28108 29.7636C3.34428 29.8802 3.44509 29.9777 3.57081 30.0438Z" fill="black"/>
<path d="M13.4243 35.9942C13.4683 35.993 13.5104 35.9851 13.5444 35.9716C13.5784 35.9581 13.6025 35.9398 13.6133 35.9193C13.6546 35.8496 13.5791 35.7827 13.4998 35.7269C13.358 35.6274 13.1812 35.5406 12.9771 35.4704C12.6339 35.3511 12.3009 35.2167 11.9125 35.1297C11.6876 35.0816 11.4521 35.046 11.2105 35.0234C11.0293 35.0034 10.844 34.9936 10.6581 34.9943C10.6252 34.9947 10.5932 35 10.5666 35.0093C10.54 35.0187 10.5199 35.0317 10.509 35.0466C10.4982 35.0616 10.4971 35.0778 10.5058 35.0931C10.5146 35.1083 10.5328 35.122 10.5581 35.1321C10.644 35.1595 10.7399 35.1788 10.8407 35.1891C11.3434 35.2601 11.8086 35.3831 12.2441 35.5228C12.4787 35.5952 12.6984 35.6782 12.9003 35.7706C13.0345 35.8344 13.2062 35.9967 13.4243 35.9942Z" fill="#3F3D56"/>
<path opacity="0.2" d="M13.4243 35.9942C13.4683 35.993 13.5104 35.9851 13.5444 35.9716C13.5784 35.9581 13.6025 35.9398 13.6133 35.9193C13.6546 35.8496 13.5791 35.7827 13.4998 35.7269C13.358 35.6274 13.1812 35.5406 12.9771 35.4704C12.6339 35.3511 12.3009 35.2167 11.9125 35.1297C11.6876 35.0816 11.4521 35.046 11.2105 35.0234C11.0293 35.0034 10.844 34.9936 10.6581 34.9943C10.6252 34.9947 10.5932 35 10.5666 35.0093C10.54 35.0187 10.5199 35.0317 10.509 35.0466C10.4982 35.0616 10.4971 35.0778 10.5058 35.0931C10.5146 35.1083 10.5328 35.122 10.5581 35.1321C10.644 35.1595 10.7399 35.1788 10.8407 35.1891C11.3434 35.2601 11.8086 35.3831 12.2441 35.5228C12.4787 35.5952 12.6984 35.6782 12.9003 35.7706C13.0345 35.8344 13.2062 35.9967 13.4243 35.9942Z" fill="black"/>
<path d="M14.2661 33.9942C14.2661 33.9942 15.0668 34.0116 14.4041 33.2911C13.7415 32.5707 12.556 31.8558 11.7122 32.0173C11.7122 32.0173 11.3625 32.2767 11.6647 32.3214C11.9514 32.3639 13.2886 32.6008 13.9032 33.2676C13.9705 33.34 14.0456 33.4063 14.1274 33.4655C14.2717 33.5706 14.466 33.7695 14.2661 33.9942Z" fill="#3F3D56"/>
<path opacity="0.2" d="M14.2661 33.9942C14.2661 33.9942 15.0668 34.0116 14.4041 33.2911C13.7415 32.5707 12.556 31.8558 11.7122 32.0173C11.7122 32.0173 11.3625 32.2767 11.6647 32.3214C11.9514 32.3639 13.2886 32.6008 13.9032 33.2676C13.9705 33.34 14.0456 33.4063 14.1274 33.4655C14.2717 33.5706 14.466 33.7695 14.2661 33.9942Z" fill="black"/>
<path d="M15.2217 32.7793C15.368 32.5447 14.8977 32.0144 14.1711 31.5949C13.4446 31.1754 12.7369 31.0255 12.5906 31.2601C12.4442 31.4947 12.9146 32.025 13.6411 32.4445C14.3677 32.864 15.0753 33.0139 15.2217 32.7793Z" fill="#3F3D56"/>
<path opacity="0.1" d="M15.2217 32.7793C15.368 32.5447 14.8977 32.0144 14.1711 31.5949C13.4446 31.1754 12.7369 31.0255 12.5906 31.2601C12.4442 31.4947 12.9146 32.025 13.6411 32.4445C14.3677 32.864 15.0753 33.0139 15.2217 32.7793Z" fill="white"/>
<path d="M10.4971 32.7081C10.4883 32.8407 10.4506 32.9689 10.3872 33.0815C10.3239 33.194 10.2368 33.2875 10.1337 33.3537C9.79211 33.5576 9.3126 33.3759 9.15174 32.982C9.06826 32.777 9.06673 32.547 9.04993 32.3209C9.04447 32.2472 9.03563 32.1739 9.02346 32.1012C8.97256 31.8079 8.75571 31.4965 8.49355 31.5546C8.27721 31.6018 8.16318 31.8734 8.13722 32.1182C8.13052 32.1855 8.12712 32.2532 8.12704 32.3209C8.12704 32.3915 8.12958 32.4621 8.13315 32.5327C8.14027 32.6773 8.15147 32.8225 8.15096 32.9672C8.15096 33.2518 8.09599 33.5542 7.91222 33.7494C7.68926 33.9869 7.34719 33.9977 7.03871 33.9937C6.28584 33.9852 5.44795 33.9368 4.88139 33.4186C4.81165 33.3558 4.74693 33.2862 4.68795 33.2108C4.57723 33.0683 4.48738 32.9071 4.42172 32.7331C4.37126 32.6003 4.33255 32.4622 4.30617 32.3209C4.22167 31.8797 4.2405 31.3986 4.30973 30.9511C4.35453 30.6584 4.44107 30.3379 4.63247 30.1511C4.67805 30.1066 4.72957 30.0703 4.78518 30.0435C4.87681 30.0002 4.98065 29.9866 5.06057 29.9188C5.14049 29.8511 5.19241 29.7281 5.27691 29.6541C5.44642 29.5055 5.704 29.5692 5.90253 29.5191H5.91118L5.92187 29.5157C6.13618 29.4588 6.33419 29.3278 6.53628 29.2311C6.62333 29.1895 6.71038 29.1496 6.79793 29.1143C7.01592 29.0169 7.25126 28.9779 7.48514 29.0005C8.2487 29.0978 9.16498 29.6159 9.68776 30.2377C9.81656 30.3807 9.91683 30.5526 9.98199 30.7421C10.0247 30.9009 10.0483 31.0654 10.0522 31.2312C10.066 31.4652 10.0772 31.6986 10.181 31.8985C10.2441 32.0192 10.3368 32.1177 10.4025 32.2401C10.4176 32.2676 10.4309 32.2963 10.4422 32.3261C10.4888 32.4462 10.5077 32.5776 10.4971 32.7081Z" fill="#BE6F72"/>
<path d="M8.98123 30.3305C9.37912 30.5063 9.77051 30.705 10.0831 30.9787C10.3957 31.2525 10.6262 31.6114 10.6444 31.9943C10.9176 31.7118 11.1521 31.4036 11.3432 31.0756C11.4943 30.8168 11.6187 30.5108 11.4845 30.2448C11.4204 30.1322 11.3302 30.0318 11.2195 29.9499C10.6334 29.4758 9.8454 29.2137 9.0483 29.1063C8.18674 28.99 6.46557 28.7362 6.33337 29.808C7.29848 29.769 8.11902 29.951 8.98123 30.3305Z" fill="#E3E8F4"/>
<path d="M17.339 16.9943C16.8521 17.2218 16.2822 17.061 15.7675 17.1987C15.3875 17.3003 15.0608 17.558 14.7524 17.8189C14.1378 18.3385 13.532 18.9194 13.2033 19.6849C13.0959 19.9355 13.0193 20.2018 12.8905 20.4379C12.6821 20.8231 12.3494 21.1098 12.0028 21.3524C11.117 21.9699 10.0886 22.3561 9.30033 23.1124C8.96315 23.4351 8.67918 23.8181 8.4151 24.2124C8.10478 24.675 7.80788 25.1914 7.80191 25.7626C7.80191 25.9864 7.84269 26.2134 7.80191 26.4334C7.71438 26.9256 7.25486 27.2311 7.04747 27.6797C6.84855 28.1074 6.89579 28.6356 6.67448 29.0487C6.52927 29.3176 6.26618 29.5866 6.34924 29.8835C6.95895 29.3881 7.692 29.1843 8.43798 29.3456C8.81147 29.4258 9.16009 29.606 9.49429 29.8034C9.8817 30.0325 10.2636 30.2929 10.5436 30.664C10.8236 31.0352 10.9912 31.529 10.8918 31.9943C11.2951 31.7791 11.5338 31.3197 11.6994 30.8679C11.865 30.4161 11.9913 29.9336 12.2663 29.5511C12.4081 29.3537 12.5841 29.1896 12.7517 29.018C13.6822 28.0643 14.3531 26.8594 15.0116 25.6701C15.6906 24.4444 16.3692 23.218 17.0476 21.9909C17.2356 21.6504 17.4246 21.3077 17.5603 20.9398C18.0164 19.7026 17.721 18.2578 17.339 16.9943Z" fill="black"/>
<path d="M48 32.9943C49.7259 32.9943 51.125 32.7704 51.125 32.4943C51.125 32.2181 49.7259 31.9943 48 31.9943C46.2741 31.9943 44.875 32.2181 44.875 32.4943C44.875 32.7704 46.2741 32.9943 48 32.9943Z" fill="black"/>
<path d="M49.6379 25.5272C49.6972 25.4705 49.7512 25.4109 49.7997 25.3486L48.6573 25.2074L49.8927 25.2143C50.0112 25.0205 50.0759 24.8107 50.0827 24.5976C50.0896 24.3844 50.0386 24.1725 49.9327 23.9746L48.2748 24.6208L49.8036 23.7763C49.6605 23.5902 49.4679 23.4283 49.2378 23.3005C49.0077 23.1728 48.7451 23.0821 48.4662 23.034C48.1874 22.9859 47.8984 22.9814 47.6172 23.0209C47.3359 23.0604 47.0686 23.143 46.8317 23.2636C46.5949 23.3841 46.3936 23.54 46.2405 23.7216C46.0874 23.9031 45.9857 24.1065 45.9417 24.3188C45.8978 24.5312 45.9126 24.7481 45.9851 24.956C46.0577 25.1639 46.1864 25.3584 46.3634 25.5272C46.2712 25.6158 46.1917 25.7115 46.1263 25.8127L47.6093 26.3919L46.0267 25.9928C45.9157 26.2394 45.8882 26.5028 45.9467 26.7594C46.0053 27.016 46.148 27.2575 46.3621 27.4622C46.1205 27.6931 45.9703 27.9703 45.9286 28.2623C45.8869 28.5542 45.9553 28.8491 46.1261 29.1133C46.2969 29.3774 46.5632 29.6001 46.8945 29.7558C47.2259 29.9116 47.6088 29.9943 47.9997 29.9943C48.3905 29.9943 48.7735 29.9116 49.1048 29.7558C49.4361 29.6001 49.7024 29.3774 49.8732 29.1133C50.0441 28.8491 50.1125 28.5542 50.0708 28.2623C50.029 27.9703 49.8788 27.6931 49.6373 27.4622C49.9258 27.1863 50.0827 26.8456 50.0827 26.4947C50.0827 26.1439 49.9258 25.8031 49.6373 25.5272H49.6379Z" fill="black"/>
<path opacity="0.1" d="M45.9167 26.0205C45.9159 26.419 46.0729 26.8061 46.3622 27.1191C46.1206 27.3812 45.9703 27.696 45.9286 28.0276C45.8869 28.3591 45.9553 28.6939 46.1262 28.9939C46.297 29.2938 46.5633 29.5466 46.8947 29.7235C47.2261 29.9004 47.6091 29.9943 48 29.9943C48.3909 29.9943 48.774 29.9004 49.1053 29.7235C49.4367 29.5466 49.703 29.2938 49.8739 28.9939C50.0447 28.6939 50.1132 28.3591 50.0715 28.0276C50.0297 27.696 49.8795 27.3812 49.6379 27.1191C49.9163 26.8168 45.9167 25.821 45.9167 26.0205Z" fill="black"/>
<path d="M24.9389 8.94035C25.3197 9.08051 25.6911 9.28193 26.0996 9.30841C26.6179 9.34163 27.1074 9.08934 27.6224 9.01978C28.5661 8.89259 29.4618 9.38316 30.3484 9.71644C31.2349 10.0497 32.377 10.1878 33.027 9.5228C33.579 8.95748 33.5029 8.01736 33.0591 7.37365C32.6153 6.72994 31.8903 6.3136 31.1734 5.95489C30.3826 5.55932 29.5581 5.19957 28.6776 5.05993C26.8088 4.76455 24.9101 5.50222 23.3595 6.54098C22.845 6.88567 22.3365 7.28799 22.0906 7.83878C21.9514 8.15025 21.9079 8.54893 22.0292 8.87339C22.2282 9.40704 22.3588 9.34371 22.7716 9.20458C23.5602 8.93983 24.0263 8.60708 24.9389 8.94035Z" fill="#3F3D56"/>
<path opacity="0.1" d="M16.8323 29.3444C16.8488 29.39 16.8659 29.4341 16.8856 29.4772C17.2371 29.2122 17.5776 28.9387 17.907 28.6566C18.104 28.5721 18.2668 28.428 18.3708 28.2463C18.4657 28.1601 18.5601 28.0719 18.6534 27.9842C18.613 27.9407 18.5697 27.8997 18.5238 27.8616C18.2082 27.5954 17.818 27.4836 17.4613 27.597C17.1047 27.7103 16.8611 28.0237 16.772 28.4176C16.7058 28.7262 16.7266 29.0461 16.8323 29.3444Z" fill="#3F3D56"/>
<path opacity="0.1" d="M16.247 27.6405C16.3467 27.9397 16.5276 28.208 16.771 28.4175C17.0866 28.6827 17.4763 28.795 17.8335 28.6812C17.858 28.673 17.8815 28.6642 17.906 28.655C18.103 28.5705 18.2658 28.4265 18.3698 28.2447C18.4413 28.1249 18.4929 27.9951 18.5228 27.86C18.5845 27.5515 18.5629 27.2329 18.4603 26.9347C18.3576 26.6364 18.1772 26.3684 17.9364 26.1562C17.6202 25.8901 17.2305 25.7782 16.8739 25.8916C16.5172 26.0049 16.2736 26.3183 16.1846 26.7122C16.1188 27.0214 16.1403 27.342 16.247 27.6405Z" fill="#3F3D56"/>
<path opacity="0.1" d="M17.2459 26.9805C17.8573 26.7861 18.1385 26.0043 17.8739 25.2343C17.6094 24.4643 16.8993 23.9977 16.2879 24.1921C15.6765 24.3865 15.3954 25.1683 15.6599 25.9383C15.9244 26.7083 16.6345 27.175 17.2459 26.9805Z" fill="#3F3D56"/>
<path opacity="0.1" d="M16.6606 25.2769C17.272 25.0825 17.5532 24.3006 17.2887 23.5306C17.0241 22.7606 16.314 22.294 15.7027 22.4884C15.0913 22.6829 14.8101 23.4647 15.0746 24.2347C15.3392 25.0047 16.0493 25.4713 16.6606 25.2769Z" fill="#3F3D56"/>
<path opacity="0.1" d="M16.0753 23.5733C16.6867 23.3789 16.9679 22.5971 16.7033 21.8271C16.4388 21.0571 15.7287 20.5905 15.1173 20.7849C14.5059 20.9793 14.2248 21.7611 14.4893 22.5311C14.7538 23.3011 15.4639 23.7677 16.0753 23.5733Z" fill="#3F3D56"/>
<path opacity="0.1" d="M15.7346 9.1997C15.8226 8.96634 15.8938 8.72746 15.9479 8.48474L12.8814 8.95044L16.0348 7.97237C16.1192 7.24475 16.0485 6.50821 15.8271 5.80776C15.6056 5.10731 15.2381 4.45766 14.7468 3.8985L11.2507 7.34716L14.1966 3.3569C13.6237 2.86699 12.9521 2.4958 12.2236 2.26644C11.4951 2.03709 10.7253 1.95448 9.96214 2.02376C9.19901 2.09305 8.45887 2.31273 7.78782 2.66915C7.11677 3.02557 6.52918 3.51108 6.06162 4.09545C5.59407 4.67982 5.25657 5.35054 5.07014 6.06584C4.88372 6.78115 4.85235 7.52571 4.97801 8.25318C5.10366 8.98065 5.38364 9.67545 5.80051 10.2943C6.21738 10.9132 6.76222 11.4428 7.40109 11.8503C7.26429 12.2136 7.16866 12.59 7.11588 12.973L11.5407 13.6593L7.06843 13.6398C7.06197 14.5335 7.28727 15.4147 7.72393 16.2036C8.16059 16.9924 8.79483 17.6641 9.56924 18.1578C9.21276 19.1058 9.14073 20.1311 9.3614 21.1167C9.58208 22.1022 10.0865 23.0081 10.8171 23.7307C11.5477 24.4534 12.4749 24.9638 13.4928 25.2034C14.5106 25.443 15.578 25.4022 16.5729 25.0858C17.5678 24.7693 18.45 24.1898 19.1188 23.4137C19.7875 22.6376 20.2158 21.6961 20.3546 20.6968C20.4933 19.6976 20.3371 18.681 19.9036 17.7631C19.4701 16.8453 18.777 16.0634 17.9033 15.5067C18.3299 14.3737 18.3481 13.1356 17.9551 11.9914C17.5621 10.8473 16.7806 9.86348 15.7362 9.19816L15.7346 9.1997Z" fill="black"/>
<path opacity="0.1" d="M7.34774 15.3671C7.73919 16.5118 8.52081 17.4958 9.56601 18.1598C9.21025 19.1078 9.13887 20.1329 9.36002 21.1181C9.58117 22.1032 10.0859 23.0087 10.8166 23.7309C11.5473 24.4532 12.4745 24.9631 13.4921 25.2024C14.5098 25.4417 15.5769 25.4008 16.5715 25.0842C17.5661 24.7677 18.4481 24.1884 19.1167 23.4125C19.7853 22.6366 20.2135 21.6953 20.3524 20.6964C20.4914 19.6974 20.3354 18.681 19.9023 17.7632C19.4692 16.8455 18.7765 16.0635 17.9033 15.5066C18.3143 14.4127 7.15263 14.7922 7.34774 15.3671Z" fill="black"/>
</svg>
