<svg width="13" height="12" viewBox="0 0 13 12" fill="none" xmlns="http://www.w3.org/2000/svg">
<g clip-path="url(#clip0_100_438)">
<path d="M12 0.216858L1 0.216858C0.585787 0.216858 0.25 0.507873 0.25 0.866858L0.25 10.4002C0.25 10.7592 0.585787 11.0502 1 11.0502H12C12.4142 11.0502 12.75 10.7592 12.75 10.4002V0.866858C12.75 0.507873 12.4142 0.216858 12 0.216858Z" fill="#4277FF"/>
<path d="M2.5 4.33356H4V8.88356H2.5V4.33356Z" fill="white"/>
<path d="M3.25 3.35852C3.73325 3.35852 4.125 3.01901 4.125 2.60019C4.125 2.18138 3.73325 1.84186 3.25 1.84186C2.76675 1.84186 2.375 2.18138 2.375 2.60019C2.375 3.01901 2.76675 3.35852 3.25 3.35852Z" fill="white"/>
<path d="M8.125 5.41689C7.57275 5.41689 7.125 5.66995 7.125 6.39189V8.88355H5.625V4.33355H7.125V4.81239H7.1245C7.31201 4.62763 7.54285 4.47968 7.80161 4.37842C8.06037 4.27717 8.34109 4.22494 8.625 4.22522C9.7295 4.22522 10.625 4.94022 10.625 6.17522V8.88355H9.125V6.39189C9.125 5.66995 8.6775 5.41689 8.125 5.41689Z" fill="white"/>
</g>
<defs>
<clipPath id="clip0_100_438">
<rect width="13" height="11.2667" fill="white"/>
</clipPath>
</defs>
</svg>
