<svg width="92" height="68" viewBox="0 0 92 68" fill="none" xmlns="http://www.w3.org/2000/svg">
<path d="M49.378 68H32.0806C31.9692 67.8992 31.8592 67.7972 31.7506 67.6925C30.6114 66.6046 29.6354 65.3825 28.8485 64.0585C27.0152 60.9632 26.2791 57.3653 27.3282 54.0232C27.355 53.938 27.3819 53.8527 27.4115 53.7674C27.4679 53.8462 27.5257 53.9251 27.5849 54.0026C28.3654 55.0569 29.2374 56.0518 30.1923 56.9777C30.2643 57.0501 30.339 57.1224 30.4152 57.1935C32.7419 59.4034 35.4974 61.1974 38.5407 62.4837C39.2204 62.7718 39.9132 63.0323 40.6192 63.2653C41.1665 63.4474 41.7221 63.6115 42.2819 63.7588C44.6327 64.375 47.3176 64.8362 48.7095 66.6771C48.9458 66.9908 49.1346 67.3324 49.2708 67.6925C49.3117 67.7933 49.3469 67.8966 49.378 68Z" fill="#F0F0F0"/>
<path d="M44.8257 67.6925C44.9333 67.7894 45.0346 67.8921 45.1289 68H44.7877C44.6814 67.8908 44.5674 67.7881 44.4464 67.6925C44.0687 67.3901 43.6129 67.1811 43.1222 67.0854C42.8047 67.0278 42.4811 67.0035 42.1577 67.013C41.5174 67.0259 40.8716 67.1357 40.2398 67.2016C40.0805 67.2184 39.9211 67.2313 39.7632 67.2391C38.939 67.2949 38.1114 67.1878 37.3363 66.9252C36.3689 66.5893 35.5002 66.0389 34.7161 65.4279C34.2113 65.0351 33.728 64.6192 33.2665 64.1799L33.0888 64.0094C30.2317 61.2103 28.2429 57.7627 27.3281 54.0232C27.3098 53.9522 27.2929 53.8798 27.276 53.8075C27.2421 53.6589 27.4988 53.6383 27.5327 53.7855C27.5496 53.8579 27.5665 53.9302 27.5848 54.0026C27.9551 55.5185 28.508 56.9921 29.2333 58.3962C29.2686 58.4686 29.3052 58.5396 29.3447 58.6094C30.3698 60.5533 31.718 62.3397 33.3412 63.9048C33.3567 63.9216 33.3736 63.9371 33.3919 63.9539C33.7713 64.3169 34.1656 64.6665 34.5751 65.0029C35.3451 65.6346 36.187 66.2133 37.1374 66.597C37.922 66.9108 38.7757 67.0528 39.6306 67.0117C39.7152 67.0091 39.8012 67.004 39.8872 66.9975C39.9549 66.9923 40.0226 66.9872 40.0917 66.9807C40.7376 66.9174 41.3891 66.8063 42.042 66.7818C42.3377 66.7691 42.6341 66.7803 42.9276 66.8153C43.648 66.9098 44.3147 67.2179 44.8257 67.6925Z" fill="white"/>
<path d="M33.3623 64.109C32.7373 64.591 31.9456 64.8538 31.1285 64.8504C30.3115 64.847 29.5224 64.5778 28.9021 64.0906C28.777 63.9917 28.939 63.8089 29.0643 63.908C29.641 64.3626 30.3761 64.6133 31.1369 64.615C31.8977 64.6168 32.6341 64.3693 33.2132 63.9173C33.3392 63.8192 33.4875 64.0114 33.3623 64.109V64.109Z" fill="white"/>
<path d="M39.6229 67.0838C39.7807 65.5606 39.306 64.0389 38.2934 62.8222C38.193 62.7017 38.4024 62.5652 38.5027 62.6856C39.5538 63.9536 40.0443 65.5381 39.8763 67.1228C39.8602 67.2738 39.6069 67.234 39.6229 67.0838Z" fill="white"/>
<path d="M29.1635 58.434C29.4478 58.2937 29.6895 58.0908 29.8671 57.8437C30.0446 57.5967 30.1524 57.313 30.1807 57.0184C30.1948 56.8672 30.4481 56.9072 30.4341 57.0573C30.4012 57.3828 30.2817 57.6959 30.0862 57.9693C29.8907 58.2427 29.6251 58.468 29.3126 58.6257C29.2845 58.6428 29.2504 58.6495 29.2171 58.6444C29.1838 58.6393 29.1539 58.6227 29.1334 58.5981C29.1138 58.5727 29.106 58.5411 29.1116 58.5104C29.1173 58.4797 29.1359 58.4522 29.1635 58.434Z" fill="white"/>
<path d="M54.1062 67.9031L54.0287 68H42.6951C42.6372 67.8979 42.5795 67.7959 42.523 67.6925C42.3975 67.4677 42.2758 67.2412 42.1578 67.013C42.1183 66.9381 42.0774 66.8618 42.0422 66.783V66.7818C41.4637 65.6476 40.9878 64.472 40.6192 63.2666V63.2653C40.4191 62.605 40.2558 61.9358 40.1299 61.2603C39.8082 59.5136 39.7887 57.7314 40.0721 55.9791C40.0736 55.9701 40.0749 55.9611 40.0764 55.952C40.6475 52.4691 42.4243 49.1917 45.4562 47.1014C45.4576 47.1001 45.4576 47.1001 45.459 47.1001C45.5366 47.0459 45.6127 46.9955 45.6903 46.9425C45.6847 47.0368 45.679 47.1285 45.6748 47.2228V47.228C45.6037 48.4998 45.6457 49.7748 45.8003 51.0403V51.0416C45.8101 51.1398 45.8229 51.238 45.8355 51.3362V51.3374C46.2432 54.3839 47.2645 57.3345 48.8477 60.0395C48.8477 60.0397 48.8477 60.0398 48.8478 60.04C48.8478 60.0402 48.8479 60.0403 48.8481 60.0404C48.8482 60.0405 48.8484 60.0406 48.8486 60.0407C48.8487 60.0408 48.8489 60.0408 48.8491 60.0408C49.4789 61.1167 50.1978 62.1468 50.9996 63.1219C52.1066 64.4706 53.4237 65.8503 53.9652 67.4083C53.9991 67.5026 54.0287 67.5969 54.0555 67.6925C54.0738 67.7623 54.0908 67.8333 54.1062 67.9031Z" fill="#F0F0F0"/>
<path d="M50.4807 68H50.2184C50.2128 67.8966 50.2029 67.7946 50.1873 67.6925C50.1131 67.156 49.8679 66.6513 49.4823 66.2418C48.8406 65.5713 47.9282 65.1902 47.1047 64.7458C46.9665 64.6708 46.8311 64.5933 46.7 64.5119C46.0041 64.1027 45.413 63.5607 44.9668 62.9229C44.4169 62.1207 44.0855 61.2022 43.8598 60.2824C43.7147 59.6894 43.6027 59.0901 43.5242 58.4867C43.5116 58.4091 43.5016 58.3303 43.4932 58.2515C43.0499 54.4403 43.7287 50.5898 45.459 47.1001C45.49 47.0329 45.5239 46.9657 45.5577 46.8999C45.6268 46.7629 45.8454 46.8882 45.7749 47.0239C45.7411 47.0898 45.7072 47.1569 45.6748 47.2228C44.9744 48.6388 44.4471 50.1214 44.1024 51.6436C44.0841 51.7211 44.0672 51.7986 44.0517 51.8749C43.5931 53.9915 43.4951 56.1604 43.7612 58.3045C43.764 58.3303 43.7668 58.3549 43.7696 58.3794C43.8359 58.8781 43.9214 59.3733 44.0263 59.8651C44.2265 60.7939 44.5184 61.7202 45.0247 62.5509C45.4449 63.2334 46.033 63.8169 46.7423 64.2549C46.8128 64.3014 46.8847 64.3453 46.958 64.3879C47.0159 64.4215 47.0736 64.4551 47.1329 64.4874C47.9423 64.9318 48.8265 65.3013 49.5034 65.9188C50.024 66.3979 50.3563 67.0218 50.4482 67.6925C50.4648 67.7944 50.4756 67.8971 50.4807 68Z" fill="white"/>
<path d="M43.6458 58.4822C42.83 58.5224 42.0251 58.2955 41.375 57.8422C40.7249 57.3889 40.2718 56.7387 40.0967 56.0076C40.0618 55.8595 40.3113 55.8029 40.3462 55.9512C40.5079 56.6322 40.93 57.2379 41.5363 57.6589C42.1427 58.0799 42.8933 58.2885 43.6528 58.2469C43.8178 58.2381 43.8099 58.4735 43.6458 58.4822Z" fill="white"/>
<path d="M46.6894 64.3106C47.8164 63.1814 48.4375 61.7046 48.4287 60.1746C48.4277 60.023 48.6846 60.0296 48.6856 60.181C48.6914 61.7732 48.0417 63.3088 46.8661 64.4815C46.754 64.5932 46.5779 64.4217 46.6894 64.3106Z" fill="white"/>
<path d="M44.0228 51.6351C44.342 51.6799 44.6683 51.6513 44.9724 51.5519C45.2766 51.4526 45.549 51.2856 45.7653 51.0659C45.8759 50.953 46.0518 51.1246 45.942 51.2368C45.7018 51.4784 45.4007 51.6625 45.0649 51.773C44.7292 51.8835 44.369 51.9169 44.0158 51.8704C43.9821 51.8686 43.9505 51.8551 43.9273 51.8327C43.904 51.8102 43.891 51.7805 43.8909 51.7496C43.892 51.7184 43.9064 51.689 43.9311 51.6675C43.9558 51.6461 43.9888 51.6345 44.0228 51.6351H44.0228Z" fill="white"/>
<path d="M53.2037 64.7904H51.3962L50.5364 58.4036L53.204 58.4037L53.2037 64.7904Z" fill="#9E616A"/>
<path d="M54.176 67.9345H52.8934L52.6645 66.8252L52.0782 67.9345H48.6765C48.5134 67.9345 48.3546 67.8868 48.2233 67.7983C48.0919 67.7098 47.9949 67.5851 47.9464 67.4425C47.8979 67.2999 47.9004 67.1468 47.9535 67.0056C48.0067 66.8644 48.1078 66.7424 48.2419 66.6576L50.9584 64.9389V63.8174L53.8157 63.9736L54.176 67.9345Z" fill="#2F2E41"/>
<path d="M69.9879 63.1427L68.3876 63.9124L64.3853 58.6238L66.7473 57.4878L69.9879 63.1427Z" fill="#9E616A"/>
<path d="M72.4443 65.5122L71.3087 66.0584L70.5431 65.1738L70.5869 66.4056L67.5751 67.8543C67.4308 67.9238 67.266 67.9491 67.1048 67.9267C66.9435 67.9042 66.7944 67.8352 66.6791 67.7296C66.5637 67.624 66.4883 67.4874 66.4637 67.3397C66.4391 67.192 66.4667 67.041 66.5424 66.9088L68.0754 64.2302L67.5063 63.2373L70.1154 62.1588L72.4443 65.5122Z" fill="#2F2E41"/>
<path d="M46.2957 3.60855V8.91129C47.6336 8.58373 49.011 8.41042 50.3958 8.39537C51.3659 8.38652 52.3348 8.46049 53.29 8.61632C53.7663 8.69255 54.2487 8.79087 54.7371 8.91129C55.7609 6.93933 56.0841 5.10768 54.7371 3.60855C54.7371 3.18781 54.6467 2.77118 54.471 2.38245C54.2953 1.99373 54.0377 1.64052 53.7129 1.34301C53.3882 1.0455 53.0026 0.809521 52.5783 0.648543C52.154 0.487565 51.6992 0.404746 51.2399 0.404816H49.7928C49.3335 0.404746 48.8787 0.487565 48.4544 0.648543C48.0301 0.809521 47.6445 1.0455 47.3198 1.34301C46.995 1.64052 46.7374 1.99373 46.5617 2.38245C46.386 2.77118 46.2956 3.18781 46.2957 3.60855Z" fill="#2F2E41"/>
<path d="M63.9411 60.0403L55.0902 45.9613C55.0094 45.8315 54.9677 45.6844 54.9694 45.5349C54.9712 45.3855 55.0163 45.2392 55.1001 45.111L58.8685 39.3574C58.9578 39.2209 59.0876 39.1104 59.2427 39.0388C59.3979 38.9672 59.572 38.9373 59.7449 38.9527C59.9178 38.9681 60.0824 39.0281 60.2196 39.1257C60.3568 39.2234 60.4609 39.3547 60.5199 39.5044L68.1269 58.2415C68.2053 58.4382 68.2005 58.6547 68.1134 58.8484C68.0263 59.042 67.8632 59.1988 67.6562 59.2878L65.1317 60.3832C65.0099 60.436 64.8768 60.4634 64.742 60.4634C64.5797 60.4636 64.4201 60.4246 64.2795 60.3503C64.1389 60.276 64.0222 60.1691 63.9411 60.0403Z" fill="#2F2E41"/>
<path d="M53.3746 62.9389L49.6318 62.5434C49.5106 62.5306 49.3935 62.4958 49.2872 62.441C49.1809 62.3863 49.0875 62.3127 49.0126 62.2246C48.9376 62.1365 48.8826 62.0356 48.8506 61.9277C48.8187 61.8199 48.8105 61.7074 48.8266 61.5966L52.167 38.5557C52.1786 38.4755 52.1739 38.3939 52.1531 38.3153L48.7956 25.6254C48.7639 25.5083 48.7603 25.3864 48.7851 25.2679C48.8099 25.1495 48.8625 25.0374 48.9393 24.9395C49.46 24.282 51.2439 22.7496 56.5503 22.7205H56.556C56.7328 22.7205 56.9057 22.7671 57.0544 22.8546C57.203 22.9422 57.3211 23.067 57.3945 23.2143L58.1023 24.6408C58.155 24.7467 58.2375 24.8378 58.3412 24.905C59.3155 25.5368 64.0354 29.0831 61.264 36.8689C58.5401 44.5213 55.0502 59.3778 54.3782 62.2782C54.3353 62.4668 54.2228 62.636 54.0597 62.7573C53.8965 62.8787 53.6926 62.9449 53.4824 62.9446C53.4464 62.9446 53.4104 62.9427 53.3746 62.9389Z" fill="#2F2E41"/>
<path d="M49.0019 8.33766C51.0665 8.33766 52.7402 6.80437 52.7402 4.91297C52.7402 3.02157 51.0665 1.48828 49.0019 1.48828C46.9373 1.48828 45.2635 3.02157 45.2635 4.91297C45.2635 6.80437 46.9373 8.33766 49.0019 8.33766Z" fill="#9E616A"/>
<path d="M49.0958 24.7552L49.1368 24.2459C49.1078 24.2326 49.0789 24.2183 49.0487 24.2017C47.3713 23.3106 45.2429 18.7386 43.907 15.5039C43.5568 14.654 43.5591 13.7159 43.9133 12.8674C44.2675 12.0189 44.9491 11.3188 45.8289 10.8997L45.8297 10.8994C45.8631 10.8858 45.8917 10.8639 45.9122 10.8362L52.081 9.76374C52.1076 9.75365 52.1363 9.74908 52.1651 9.75035L55.9446 9.9173C56.4495 9.9396 56.9325 10.1124 57.3202 10.4094C57.708 10.7065 57.9791 11.1114 58.0924 11.5627L59.3196 21.0634C59.3238 21.0805 59.2711 21.2704 59.2807 21.2856C59.2971 21.3117 59.3277 21.36 59.3714 21.4288C59.4859 21.61 59.7731 22.8321 60.0432 23.2729C59.4537 24.914 51.7224 24.4881 49.0958 24.7552Z" fill="#E4E4E4"/>
<path opacity="0.1" d="M55.106 15.6841L56.5531 20.6555L53.9001 24.4116L55.106 20.6555V15.6841Z" fill="black"/>
<path d="M44.9019 25.682L50.2079 29.2172L52.0167 28.4439L48.0372 25.3506L44.9019 25.682Z" fill="#9E616A"/>
<path d="M46.7107 21.2631L49.2431 25.7925L42.6106 26.6763C42.6106 26.6763 43.3341 13.7509 43.6959 12.8671C43.8933 12.4504 44.1475 12.0583 44.4525 11.7001C44.7068 11.3869 45.0585 11.1514 45.4615 11.0245C45.8645 10.8976 46.2999 10.8852 46.7107 10.989V21.2631Z" fill="#E4E4E4"/>
<path d="M51.7223 31.1165C52.5882 31.1165 53.29 30.4735 53.29 29.6804C53.29 28.8872 52.5882 28.2442 51.7223 28.2442C50.8565 28.2442 50.1547 28.8872 50.1547 29.6804C50.1547 30.4735 50.8565 31.1165 51.7223 31.1165Z" fill="#9E616A"/>
<path d="M65.9389 29.9292L33.7524 26.8672C33.5081 26.844 33.2611 26.865 33.0257 26.9292C32.7902 26.9934 32.5709 27.0994 32.3802 27.2413C32.1895 27.3831 32.0311 27.558 31.9142 27.7559C31.7972 27.9538 31.724 28.1708 31.6986 28.3947L30.8948 35.4861C30.8694 35.71 30.8924 35.9362 30.9625 36.1519C31.0325 36.3676 31.1483 36.5685 31.3031 36.7432C31.4579 36.9179 31.6488 37.063 31.8648 37.1701C32.0808 37.2772 32.3178 37.3443 32.5621 37.3676L33.0345 37.4125L35.469 37.6441L64.7487 40.4295C64.993 40.4528 65.24 40.4317 65.4754 40.3675C65.7108 40.3033 65.9302 40.1973 66.1209 40.0555C66.3116 39.9136 66.47 39.7388 66.5869 39.5409C66.7038 39.343 66.7771 39.1259 66.8024 38.9021L67.6063 31.8106C67.6317 31.5868 67.6087 31.3606 67.5386 31.1449C67.4686 30.9292 67.3528 30.7283 67.198 30.5535C67.0432 30.3788 66.8523 30.2338 66.6363 30.1266C66.4202 30.0195 66.1833 29.9524 65.9389 29.9292Z" fill="#CACACA"/>
<path d="M64.8468 39.5646L32.6603 36.5026C32.4173 36.4793 32.1945 36.3686 32.0405 36.1949C31.8865 36.0211 31.8141 35.7986 31.8391 35.576L32.6429 28.4845C32.6684 28.2619 32.7892 28.0577 32.9789 27.9167C33.1685 27.7757 33.4115 27.7093 33.6544 27.7322L58.1002 30.0577C60.3951 30.2785 62.5008 31.3242 63.9553 32.9654C65.4097 34.6066 66.0941 36.7094 65.8583 38.8123C65.8328 39.0348 65.712 39.239 65.5224 39.3801C65.3328 39.5211 65.0898 39.5875 64.8468 39.5646Z" fill="white"/>
<path d="M56.4018 31.4639L42.8096 30.1709C42.4735 30.1389 42.1728 30.3626 42.1379 30.6705L42.1378 30.6705C42.1029 30.9785 42.3471 31.254 42.6832 31.286L56.2754 32.579C56.6115 32.611 56.9123 32.3873 56.9472 32.0794C56.9821 31.7715 56.7379 31.4959 56.4018 31.4639Z" fill="#6AB089"/>
<path d="M59.0399 33.9691L39.666 32.126C39.3299 32.0941 39.0291 32.3178 38.9942 32.6257C38.9593 32.9336 39.2035 33.2092 39.5396 33.2411L58.9135 35.0842C59.2496 35.1162 59.5504 34.8925 59.5853 34.5846C59.6202 34.2766 59.376 34.0011 59.0399 33.9691Z" fill="#E6E6E6"/>
<path d="M58.7871 36.1993L39.4132 34.3562C39.077 34.3242 38.7763 34.5479 38.7414 34.8559C38.7065 35.1638 38.9506 35.4393 39.2868 35.4713L58.6607 37.3144C58.9968 37.3463 59.2976 37.1226 59.3325 36.8147C59.3674 36.5068 59.1232 36.2313 58.7871 36.1993Z" fill="#E6E6E6"/>
<path d="M55.0457 24.6878L51.0662 27.7811L52.875 28.5544L58.1811 25.0192L55.0457 24.6878Z" fill="#9E616A"/>
<path d="M56.3723 10.3262C56.783 10.2224 57.2185 10.2347 57.6215 10.3616C58.0245 10.4885 58.3762 10.724 58.6305 11.0373C58.9355 11.3954 59.1897 11.7875 59.387 12.2042C59.7488 13.088 60.4724 26.0135 60.4724 26.0135L53.8398 25.1297L56.3723 20.6003L56.3723 10.3262Z" fill="#E4E4E4"/>
<path d="M51.3605 30.4537C52.2263 30.4537 52.9282 29.8107 52.9282 29.0175C52.9282 28.2244 52.2263 27.5814 51.3605 27.5814C50.4947 27.5814 49.7928 28.2244 49.7928 29.0175C49.7928 29.8107 50.4947 30.4537 51.3605 30.4537Z" fill="#9E616A"/>
<path d="M48.4665 1.17813H52.8078V3.05619H53.2901V8.61634C52.335 8.4605 51.366 8.38654 50.3959 8.39539C50.781 7.09255 50.9082 5.94905 50.8272 4.93424H47.0805C46.9273 4.60706 46.8716 4.24855 46.9189 3.89521C46.6633 4.19624 46.5023 4.55551 46.4533 4.93424H44.3663V4.93424C44.3663 4.44098 44.4724 3.95255 44.6784 3.49683C44.8845 3.04112 45.1865 2.62705 45.5672 2.27826C45.948 1.92948 46.4 1.6528 46.8974 1.46404C47.3949 1.27528 47.928 1.17813 48.4665 1.17813Z" fill="#2F2E41"/>
<path d="M91.7216 67.8463C91.7217 67.8665 91.7174 67.8865 91.7089 67.9052C91.7005 67.9238 91.6882 67.9408 91.6726 67.9551C91.657 67.9694 91.6384 67.9807 91.618 67.9884C91.5976 67.9961 91.5758 68.0001 91.5537 68H0.273887C0.229381 68 0.186701 67.9838 0.15523 67.955C0.123759 67.9261 0.106079 67.887 0.106079 67.8463C0.106079 67.8055 0.123759 67.7664 0.15523 67.7375C0.186701 67.7087 0.229381 67.6925 0.273887 67.6925H91.5537C91.5758 67.6925 91.5976 67.6964 91.618 67.7041C91.6384 67.7118 91.657 67.7231 91.6726 67.7374C91.6882 67.7517 91.7005 67.7687 91.7089 67.7873C91.7174 67.806 91.7217 67.826 91.7216 67.8463Z" fill="#CACACA"/>
<path d="M25.3442 32.8895C26.5124 32.8895 27.4594 32.0219 27.4594 30.9517C27.4594 29.8815 26.5124 29.0139 25.3442 29.0139C24.1759 29.0139 23.2289 29.8815 23.2289 30.9517C23.2289 32.0219 24.1759 32.8895 25.3442 32.8895Z" fill="#F0F0F0"/>
</svg>
