<svg width="35" height="35" viewBox="0 0 35 35" fill="none" xmlns="http://www.w3.org/2000/svg">
<path d="M28.4375 30.3514H28.4372L21.8739 30.3506C21.3665 30.3499 20.88 30.148 20.5213 29.7892C20.1625 29.4304 19.9607 28.9439 19.9601 28.4365V21.8739C19.96 21.8014 19.9312 21.7319 19.8799 21.6806C19.8287 21.6293 19.7592 21.6005 19.6867 21.6004H15.3117C15.2392 21.6005 15.1697 21.6293 15.1184 21.6806C15.0671 21.7319 15.0383 21.8014 15.0382 21.8739V28.4364C15.0377 28.9438 14.8359 29.4302 14.4771 29.7891C14.1183 30.1479 13.6319 30.3498 13.1245 30.3504L6.56277 30.3515C6.31139 30.3515 6.06247 30.3021 5.83021 30.2059C5.59795 30.1097 5.38692 29.9687 5.20915 29.791C5.03138 29.6133 4.89037 29.4022 4.79416 29.17C4.69795 28.9378 4.64844 28.6888 4.64844 28.4374V15.7964C4.64863 15.5298 4.70444 15.2661 4.81231 15.0222C4.92017 14.7783 5.07772 14.5596 5.27488 14.38L16.2116 4.43593C16.5631 4.11399 17.0225 3.93542 17.4992 3.93542C17.9759 3.93542 18.4353 4.11399 18.7868 4.43593L29.7251 14.3802C29.9222 14.5597 30.0798 14.7784 30.1876 15.0223C30.2955 15.2661 30.3513 15.5298 30.3516 15.7964V28.4374C30.3516 28.9451 30.1499 29.4319 29.7909 29.7909C29.432 30.1499 28.9451 30.3515 28.4375 30.3515V30.3514ZM15.3117 19.9598H19.6867C20.1941 19.9604 20.6807 20.1622 21.0395 20.521C21.3983 20.8799 21.6002 21.3664 21.6007 21.8739V28.4364C21.6009 28.5088 21.6297 28.5783 21.6809 28.6296C21.7322 28.6808 21.8017 28.7097 21.8742 28.7098L28.4375 28.7109C28.51 28.7109 28.5796 28.6821 28.6308 28.6308C28.6821 28.5795 28.7109 28.51 28.7109 28.4374V15.7964C28.7109 15.7583 28.7029 15.7207 28.6875 15.6858C28.6721 15.651 28.6495 15.6197 28.6214 15.5941L17.6832 5.64972C17.6329 5.60374 17.5673 5.57824 17.4992 5.57824C17.4311 5.57824 17.3654 5.60374 17.3152 5.64972L6.37848 15.5941C6.35033 15.6197 6.32784 15.651 6.31244 15.6858C6.29704 15.7207 6.28908 15.7583 6.28906 15.7964V28.4374C6.28906 28.51 6.31787 28.5795 6.36915 28.6308C6.42043 28.6821 6.48998 28.7109 6.5625 28.7109L13.1242 28.7101C13.1967 28.71 13.2662 28.6811 13.3174 28.6299C13.3687 28.5786 13.3975 28.5091 13.3976 28.4366V21.874C13.3982 21.3665 13.6 20.88 13.9589 20.5212C14.3177 20.1624 14.8042 19.9605 15.3117 19.9599V19.9598Z" fill="#F5F5F5"/>
</svg>
