<svg width="125" height="94" viewBox="0 0 125 94" fill="none" xmlns="http://www.w3.org/2000/svg">
<g clip-path="url(#clip0_136_1322)">
<path d="M9.95691 88.0753L12.193 89.1613L17.4202 80.9998L14.12 79.3969L9.95691 88.0753Z" fill="#A0616A"/>
<path d="M8.7522 90.3841L15.6282 93.7238L15.6702 93.6363C16.0128 92.9221 16.0594 92.1002 15.7998 91.3514C15.5402 90.6026 14.9956 89.9883 14.2859 89.6435L14.2857 89.6434L13.4897 88.0745L10.6863 87.8951L10.0861 87.6036L8.7522 90.3841Z" fill="#2F2E41"/>
<path d="M26.601 91.1176L29.0839 91.1174L30.265 81.481L26.6005 81.4811L26.601 91.1176Z" fill="#A0616A"/>
<path d="M26.5136 93.7238L34.1487 93.7235V93.6264C34.1487 92.8333 33.8356 92.0728 33.2782 91.512C32.7209 90.9512 31.9651 90.6362 31.1769 90.6361H31.1767L29.7821 89.5715L27.1799 90.6363L26.5134 90.6363L26.5136 93.7238Z" fill="#2F2E41"/>
<path d="M29.0618 46.4252L31.9069 66.1673L31.1326 68.765L32.1487 70.6048L30.6566 84.452L31.2623 85.7937L29.57 86.8439H26.1265L25.9438 72.2166L25.0932 70.069V68.8854L23.3616 59.9661L22.9622 73.8512L22.4094 74.9241C20.3502 79.6251 17.5763 81.1644 15.6152 84.6783L12.1716 82.8014L12.2438 81.4017C11.552 81.0492 13.2825 80.0192 13.4488 79.2571L13.7499 77.8926L15.7587 73.7058L15.8354 72.2313L15.2856 62.2028L15.5443 48.6982L20.0612 45.2227L29.0618 46.4252Z" fill="#2F2E41"/>
<path d="M38.6572 18.8152C39.0452 20.2265 39.6509 21.5677 40.4522 22.7899C42.2429 25.5142 44.8055 27.5976 47.6221 29.2651C47.8173 29.382 48.0153 29.4961 48.2133 29.6087H50.189L50.2579 29.4499V29.4485L50.3383 29.2651L50.3483 29.2434L50.3526 29.2651L50.4315 29.6087H51.4015C51.4818 29.4947 51.5607 29.3806 51.6382 29.2651C51.7516 29.0962 51.8606 28.9258 51.9639 28.7526C52.1463 28.4496 52.3092 28.1351 52.4518 27.8112C52.469 27.7751 52.4833 27.7391 52.4977 27.703L52.4331 27.6322L52.7014 26.4512L52.1619 26.3617L52.7531 24.5267C52.7316 24.4588 52.7072 24.391 52.6813 24.3231C52.3499 23.4785 51.7272 22.8476 50.9882 22.3178C50.2278 21.7706 49.3425 21.3317 48.5289 20.8755C48.1472 20.6603 47.7713 20.4337 47.4054 20.194V20.1926C46.9377 19.8879 46.4838 19.5621 46.0438 19.2151C46.0363 19.2103 46.0291 19.205 46.0223 19.1993C46.0162 19.1949 46.0104 19.1901 46.005 19.1848C44.0324 17.6341 42.3631 15.7283 41.0821 13.5643C41.0819 13.5643 41.0817 13.5643 41.0815 13.5642C41.0814 13.5641 41.0812 13.564 41.0811 13.5639C41.0809 13.5638 41.0808 13.5636 41.0808 13.5634C41.0807 13.5632 41.0807 13.5631 41.0807 13.5629C41.0376 13.4936 40.9975 13.4243 40.9573 13.3535V13.3521C40.4327 12.4442 39.9812 11.4955 39.6071 10.5151V10.5137C39.5784 10.4415 39.5526 10.3693 39.5253 10.2971C39.488 10.3606 39.4521 10.4241 39.4177 10.4877C39.4175 10.4877 39.4173 10.4877 39.4171 10.4878C39.417 10.4878 39.4168 10.488 39.4167 10.4881C39.4165 10.4882 39.4164 10.4884 39.4164 10.4886C39.4163 10.4887 39.4163 10.4889 39.4163 10.4891C38.0245 12.994 37.8925 16.0115 38.6572 18.8152Z" fill="#F0F0F0"/>
<path d="M39.4162 10.4891C39.4023 11.826 39.5405 13.16 39.828 14.4652C39.9572 15.0625 40.1182 15.6524 40.3101 16.2324C40.6828 17.367 41.1698 18.4604 41.7636 19.4953C41.7966 19.5516 41.8282 19.6064 41.8626 19.6613V19.6627C42.1164 20.0933 42.3918 20.5106 42.6877 20.913C43.1354 21.5541 43.6886 22.1136 44.3234 22.5676C44.8419 22.9123 45.4282 23.1403 46.0423 23.236C46.1571 23.2577 46.2748 23.2735 46.3939 23.288C46.8688 23.3443 47.3595 23.366 47.8301 23.467C48.0685 23.5144 48.3006 23.5895 48.5217 23.6908C49.2793 24.0445 49.7055 24.7852 49.892 25.5763C49.925 25.7149 49.9508 25.855 49.9709 25.995C50.1273 27.0706 49.9551 28.1881 50.0441 29.2651C50.0541 29.3792 50.067 29.4947 50.0828 29.6087H50.189L50.2579 29.4499V29.4485C50.2507 29.3878 50.245 29.3272 50.2392 29.2651C50.2048 28.7359 50.2005 28.2052 50.2263 27.6756C50.232 27.4373 50.2363 27.1977 50.2335 26.958C50.2306 26.766 50.2234 26.574 50.2091 26.3834V26.382C50.199 26.2636 50.1876 26.1466 50.1718 26.0297C50.1262 25.6716 50.0385 25.3202 49.9106 24.983C49.7858 24.6354 49.5894 24.3184 49.3342 24.0526C49.079 23.7869 48.7708 23.5785 48.4299 23.441C48.2216 23.3625 48.007 23.3021 47.7885 23.2606C47.3078 23.1682 46.8114 23.1451 46.3278 23.0844C46.2762 23.0786 46.2245 23.0714 46.1743 23.0628C46.1097 23.0527 46.0466 23.0411 45.9835 23.0296C45.3508 22.9166 44.7533 22.656 44.2387 22.2687C43.6272 21.7816 43.0956 21.2009 42.6633 20.5478C42.428 20.2085 42.2041 19.862 41.9961 19.5054C41.9961 19.5052 41.996 19.505 41.996 19.5048C41.9959 19.5046 41.9958 19.5045 41.9957 19.5043C41.9955 19.5042 41.9954 19.5041 41.9952 19.504C41.995 19.504 41.9948 19.5039 41.9946 19.5039C41.9846 19.4866 41.9745 19.4707 41.9645 19.4534L41.9631 19.4505C41.0707 17.916 40.4192 16.2519 40.0318 14.5172C40.0188 14.4537 40.0045 14.3902 39.9902 14.3266C39.7239 13.0741 39.5954 11.7959 39.6071 10.5151V10.5137C39.6071 10.453 39.6085 10.3939 39.6099 10.3332C39.6128 10.2091 39.422 10.1816 39.4191 10.3058C39.4177 10.3664 39.4162 10.4271 39.4177 10.4877C39.4175 10.4877 39.4173 10.4877 39.4171 10.4878C39.4169 10.4879 39.4168 10.488 39.4167 10.4881C39.4165 10.4882 39.4164 10.4884 39.4163 10.4886C39.4163 10.4888 39.4162 10.4889 39.4162 10.4891Z" fill="white"/>
<path d="M41.9445 19.6221C41.3978 19.9016 40.7701 19.9763 40.1736 19.8331C39.5771 19.6899 39.0507 19.338 38.6882 18.8402C38.6152 18.7393 38.7677 18.6204 38.8408 18.7215C39.1775 19.1856 39.6679 19.5134 40.2236 19.6456C40.7793 19.7778 41.3637 19.7058 41.8713 19.4426C41.9817 19.3855 42.0542 19.5654 41.9445 19.6221Z" fill="white"/>
<path d="M45.965 23.0871C46.3645 21.8915 46.3015 20.5883 45.7886 19.4374C45.7377 19.3234 45.9162 19.2499 45.967 19.3637C46.4986 20.5624 46.5614 21.9187 46.1429 23.1619C46.1029 23.2804 45.9252 23.2049 45.965 23.0871L45.965 23.0871Z" fill="white"/>
<path d="M39.9347 14.3443C40.1686 14.2806 40.3832 14.1593 40.559 13.9915C40.7349 13.8237 40.8666 13.6146 40.9423 13.3829C40.9807 13.264 41.1584 13.3396 41.1202 13.4578C41.0354 13.7133 40.8897 13.9441 40.6958 14.13C40.5019 14.3158 40.2657 14.451 40.0079 14.5239C39.9841 14.5328 39.9579 14.5323 39.9346 14.5224C39.9112 14.5126 39.8924 14.4942 39.8821 14.4709C39.8725 14.4471 39.8727 14.4204 39.8825 14.3967C39.8924 14.373 39.9111 14.3542 39.9347 14.3443H39.9347Z" fill="white"/>
<path d="M47.4055 20.1926V20.194C47.45 21.225 47.5781 22.2506 47.7886 23.2605V23.262C47.8001 23.3313 47.8158 23.3991 47.8302 23.467C48.1765 25.029 48.662 26.5564 49.2808 28.0307C49.4516 28.4465 49.6304 28.858 49.8174 29.2651C49.8691 29.3806 49.9222 29.4947 49.9767 29.6087H50.1891L50.2579 29.4499V29.4485L50.3383 29.2651L50.3483 29.2434L50.3526 29.2651L50.4316 29.6087H52.4834L52.8822 29.2651L53.4633 28.7641L52.6512 27.8719L52.5178 27.7246L52.4977 27.703L52.4331 27.6322L52.7014 26.4512L52.1619 26.3617L52.7531 24.5267L53.0329 23.659L53.1032 23.441L53.5121 22.172L54.7461 22.4044L54.947 21.697C54.5771 20.8343 54.2693 19.946 54.0258 19.039C54.0244 19.0318 54.0215 19.026 54.0201 19.0188C53.3682 16.5757 53.1726 14.032 53.4433 11.5171V11.5156C53.4519 11.4348 53.4619 11.3525 53.4734 11.2731V11.2702C53.5964 10.228 53.8037 9.19755 54.0933 8.18924C54.1134 8.11272 54.1363 8.03765 54.1578 7.96257C54.0918 7.99145 54.0273 8.01888 53.9613 8.04775L53.9598 8.0492H53.957C53.8522 8.0954 53.7475 8.14448 53.6456 8.19646C51.1978 9.39333 49.397 11.6398 48.374 14.2299C48.3711 14.2371 48.3683 14.2429 48.3654 14.2501C47.8316 15.6079 47.5135 17.0418 47.4227 18.4991C47.3883 19.0629 47.3825 19.6281 47.4055 20.1926Z" fill="#F0F0F0"/>
<path d="M51.1288 29.6087H51.3555C51.4272 29.4918 51.5047 29.3777 51.5822 29.2651C51.7056 29.0904 51.8328 28.9196 51.9639 28.7526C52.0772 28.6082 52.1906 28.4653 52.3039 28.3223C52.4216 28.1736 52.5378 28.0249 52.6512 27.8719L52.5177 27.7246C52.4962 27.7535 52.4747 27.7824 52.4517 27.8112C52.0844 28.2978 51.687 28.7656 51.3469 29.2651C51.2708 29.3777 51.1977 29.4918 51.1288 29.6087Z" fill="white"/>
<path d="M54.2054 8.04324C54.1681 8.09089 54.1293 8.13998 54.0935 8.18906C53.8137 8.55433 53.5492 8.93115 53.3 9.31952C52.8562 10.0048 52.462 10.7213 52.1206 11.4635C52.0933 11.5212 52.066 11.5804 52.0402 11.6396C51.3095 13.2615 50.8332 14.9875 50.6283 16.7563C50.6255 16.7736 50.624 16.7895 50.6226 16.8068C50.5753 17.2197 50.5446 17.6341 50.5308 18.0499C50.485 18.8329 50.562 19.6183 50.7589 20.3772C50.7876 20.4768 50.8192 20.575 50.8536 20.6703C50.9399 20.9038 51.048 21.1286 51.1764 21.3416C51.2687 21.4971 51.3713 21.6462 51.4835 21.7878C51.5509 21.8744 51.6212 21.9596 51.6958 22.0419C51.7389 22.0895 51.7834 22.1371 51.8279 22.1848C51.8652 22.2209 51.901 22.2584 51.9383 22.2945C52.3257 22.6728 52.7533 23.0236 53.1034 23.4408L53.0331 23.6589C52.6959 23.2286 52.2612 22.872 51.8695 22.4966C51.6236 22.264 51.3997 22.0088 51.2008 21.7343C51.175 21.6968 51.1477 21.6593 51.1234 21.6203C50.9904 21.4248 50.8756 21.2175 50.7804 21.0009C50.7316 20.8926 50.6872 20.7815 50.647 20.666C50.4126 19.9195 50.3058 19.1384 50.3313 18.356C50.3359 17.8548 50.3656 17.3541 50.4203 16.8559C50.426 16.7909 50.4332 16.7274 50.4418 16.6624C50.5873 15.4766 50.8527 14.3088 51.2338 13.1772C51.7162 11.7416 52.3798 10.3743 53.2082 9.10873C53.4449 8.74635 53.696 8.39263 53.9615 8.04757C53.9959 7.99993 54.0318 7.95373 54.0691 7.90609C54.1451 7.80791 54.2814 7.94507 54.2054 8.04324Z" fill="white"/>
<path d="M50.5101 16.8741C49.9064 16.766 49.3605 16.4455 48.9699 15.9698C48.5794 15.4941 48.3696 14.8941 48.3781 14.2771C48.3786 14.252 48.3889 14.228 48.4067 14.2103C48.4244 14.1926 48.4484 14.1826 48.4734 14.1823C48.4984 14.182 48.5225 14.1914 48.5407 14.2087C48.5589 14.226 48.5698 14.2497 48.5709 14.2748C48.562 14.8493 48.7575 15.4081 49.1221 15.8504C49.4867 16.2926 49.9963 16.5891 50.5591 16.6865C50.6814 16.7077 50.6317 16.8953 50.5102 16.8741L50.5101 16.8741Z" fill="white"/>
<path d="M51.647 22.0764C52.6814 21.3638 53.4109 20.2851 53.69 19.0554C53.7175 18.9336 53.904 18.983 53.8765 19.1047C53.5837 20.3838 52.8223 21.5048 51.7443 22.2439C51.6415 22.3143 51.5448 22.1463 51.647 22.0764H51.647Z" fill="white"/>
<path d="M52.0634 11.4425C52.2883 11.5334 52.5322 11.5665 52.773 11.5391C53.0138 11.5116 53.2441 11.4244 53.4432 11.2853C53.545 11.2136 53.6416 11.3817 53.5404 11.4529C53.3198 11.6056 53.0653 11.7016 52.7993 11.7325C52.5333 11.7634 52.2638 11.7283 52.0144 11.6302C51.9901 11.623 51.9695 11.6067 51.9567 11.5847C51.9439 11.5627 51.94 11.5366 51.9456 11.5117C51.9522 11.4869 51.9683 11.4657 51.9904 11.4528C52.0124 11.4398 52.0387 11.4361 52.0634 11.4425Z" fill="white"/>
<path d="M51.1859 30.901C54.1304 30.901 56.5175 28.4991 56.5175 25.5363C56.5175 22.5734 54.1304 20.1715 51.1859 20.1715C48.2413 20.1715 45.8542 22.5734 45.8542 25.5363C45.8542 28.4991 48.2413 30.901 51.1859 30.901Z" fill="#212529"/>
<path d="M124.497 22.9399H62.8185C62.6853 22.9399 62.5575 22.8867 62.4634 22.7919C62.3692 22.6971 62.3163 22.5686 62.3163 22.4346C62.3163 22.3006 62.3692 22.172 62.4634 22.0773C62.5575 21.9825 62.6853 21.9293 62.8185 21.9293H124.497C124.63 21.9293 124.758 21.9825 124.852 22.0773C124.946 22.172 124.999 22.3006 124.999 22.4346C124.999 22.5686 124.946 22.6971 124.852 22.7919C124.758 22.8867 124.63 22.9399 124.497 22.9399Z" fill="#E6E7E8"/>
<path d="M124.497 26.0415H62.8185C62.6853 26.0415 62.5575 25.9883 62.4634 25.8935C62.3692 25.7988 62.3163 25.6703 62.3163 25.5362C62.3163 25.4022 62.3692 25.2737 62.4634 25.1789C62.5575 25.0842 62.6853 25.0309 62.8185 25.0309H124.497C124.63 25.0309 124.758 25.0842 124.852 25.1789C124.946 25.2737 124.999 25.4022 124.999 25.5362C124.999 25.6703 124.946 25.7988 124.852 25.8935C124.758 25.9883 124.63 26.0415 124.497 26.0415Z" fill="#E6E7E8"/>
<path d="M104.105 29.1431H62.8185C62.6853 29.1431 62.5575 29.0899 62.4634 28.9951C62.3692 28.9004 62.3163 28.7718 62.3163 28.6378C62.3163 28.5038 62.3692 28.3753 62.4634 28.2805C62.5575 28.1858 62.6853 28.1325 62.8185 28.1325H104.105C104.239 28.1325 104.366 28.1858 104.461 28.2805C104.555 28.3753 104.608 28.5038 104.608 28.6378C104.608 28.7718 104.555 28.9004 104.461 28.9951C104.366 29.0899 104.239 29.1431 104.105 29.1431Z" fill="#E6E7E8"/>
<path d="M51.1859 49.8837C54.1304 49.8837 56.5175 47.4818 56.5175 44.519C56.5175 41.5561 54.1304 39.1542 51.1859 39.1542C48.2413 39.1542 45.8542 41.5561 45.8542 44.519C45.8542 47.4818 48.2413 49.8837 51.1859 49.8837Z" fill="#E6E6E6"/>
<path d="M124.497 41.9226H62.8185C62.6853 41.9226 62.5575 41.8694 62.4634 41.7746C62.3692 41.6799 62.3163 41.5513 62.3163 41.4173C62.3163 41.2833 62.3692 41.1548 62.4634 41.06C62.5575 40.9652 62.6853 40.912 62.8185 40.912H124.497C124.63 40.912 124.758 40.9652 124.852 41.06C124.946 41.1548 124.999 41.2833 124.999 41.4173C124.999 41.5513 124.946 41.6799 124.852 41.7746C124.758 41.8694 124.63 41.9226 124.497 41.9226Z" fill="#E6E7E8"/>
<path d="M124.497 45.0243H62.8185C62.6853 45.0243 62.5575 44.9711 62.4634 44.8763C62.3692 44.7815 62.3163 44.653 62.3163 44.519C62.3163 44.385 62.3692 44.2564 62.4634 44.1617C62.5575 44.0669 62.6853 44.0137 62.8185 44.0137H124.497C124.63 44.0137 124.758 44.0669 124.852 44.1617C124.946 44.2564 124.999 44.385 124.999 44.519C124.999 44.653 124.946 44.7815 124.852 44.8763C124.758 44.9711 124.63 45.0243 124.497 45.0243Z" fill="#E6E7E8"/>
<path d="M104.105 48.1259H62.8185C62.6853 48.1259 62.5575 48.0727 62.4634 47.9779C62.3692 47.8831 62.3163 47.7546 62.3163 47.6206C62.3163 47.4866 62.3692 47.358 62.4634 47.2633C62.5575 47.1685 62.6853 47.1152 62.8185 47.1152H104.105C104.239 47.1152 104.366 47.1685 104.461 47.2633C104.555 47.358 104.608 47.4866 104.608 47.6206C104.608 47.7546 104.555 47.8831 104.461 47.9779C104.366 48.0727 104.239 48.1259 104.105 48.1259Z" fill="#E6E7E8"/>
<path d="M51.1859 68.8665C54.1304 68.8665 56.5175 66.4646 56.5175 63.5017C56.5175 60.5389 54.1304 58.137 51.1859 58.137C48.2413 58.137 45.8542 60.5389 45.8542 63.5017C45.8542 66.4646 48.2413 68.8665 51.1859 68.8665Z" fill="#212529"/>
<path d="M124.497 60.9054H62.8185C62.6853 60.9054 62.5575 60.8521 62.4634 60.7574C62.3692 60.6626 62.3163 60.5341 62.3163 60.4001C62.3163 60.2661 62.3692 60.1375 62.4634 60.0428C62.5575 59.948 62.6853 59.8948 62.8185 59.8948H124.497C124.63 59.8948 124.758 59.948 124.852 60.0428C124.946 60.1375 124.999 60.2661 124.999 60.4001C124.999 60.5341 124.946 60.6626 124.852 60.7574C124.758 60.8521 124.63 60.9054 124.497 60.9054Z" fill="#E6E7E8"/>
<path d="M124.497 64.0071H62.8185C62.6853 64.0071 62.5575 63.9538 62.4634 63.8591C62.3692 63.7643 62.3163 63.6358 62.3163 63.5018C62.3163 63.3677 62.3692 63.2392 62.4634 63.1444C62.5575 63.0497 62.6853 62.9964 62.8185 62.9964H124.497C124.63 62.9964 124.758 63.0497 124.852 63.1444C124.946 63.2392 124.999 63.3677 124.999 63.5018C124.999 63.6358 124.946 63.7643 124.852 63.8591C124.758 63.9538 124.63 64.0071 124.497 64.0071Z" fill="#E6E7E8"/>
<path d="M104.105 67.1087H62.8185C62.6853 67.1087 62.5575 67.0554 62.4634 66.9607C62.3692 66.8659 62.3163 66.7374 62.3163 66.6034C62.3163 66.4693 62.3692 66.3408 62.4634 66.246C62.5575 66.1513 62.6853 66.098 62.8185 66.098H104.105C104.239 66.098 104.366 66.1513 104.461 66.246C104.555 66.3408 104.608 66.4693 104.608 66.6034C104.608 66.7374 104.555 66.8659 104.461 66.9607C104.366 67.0554 104.239 67.1087 104.105 67.1087Z" fill="#E6E7E8"/>
<path d="M34.3188 50.325C34.5142 50.1606 34.6714 49.9552 34.7793 49.7232C34.8872 49.4911 34.9433 49.2381 34.9435 48.9819C34.9438 48.7257 34.8882 48.4725 34.7807 48.2403C34.6732 48.008 34.5163 47.8023 34.3213 47.6376L33.7116 33.4164L31.6199 29.4486L29.3763 29.0087L29.8923 35.5286L31.774 47.9395C31.5208 48.2876 31.4033 48.7171 31.4437 49.1465C31.4841 49.5759 31.6797 49.9755 31.9934 50.2696C32.3071 50.5636 32.717 50.7317 33.1456 50.7419C33.5742 50.7521 33.9916 50.6037 34.3188 50.325L34.3188 50.325Z" fill="#A0616A"/>
<path d="M24.7347 18.4369C27.2056 18.4369 29.2086 16.4214 29.2086 13.9352C29.2086 11.449 27.2056 9.43359 24.7347 9.43359C22.2639 9.43359 20.2609 11.449 20.2609 13.9352C20.2609 16.4214 22.2639 18.4369 24.7347 18.4369Z" fill="#A0616A"/>
<path d="M25.3501 50.0686C19.4522 50.0687 15.0278 47.8335 14.9673 47.8023L14.9149 47.7752L14.931 47.7182C15.0894 47.1603 15.2394 46.2242 14.9679 46.0878C14.9387 46.0765 14.9128 46.058 14.8926 46.034C14.8724 46.01 14.8585 45.9812 14.8523 45.9504C14.8367 45.8382 14.9483 45.7357 15.1028 45.5937C15.4027 45.3181 15.8134 44.9408 15.5725 44.335C15.1479 43.2669 16.3418 37.7937 16.419 37.4428L15.9091 28.7184C15.8162 27.0538 16.2957 25.4078 17.2669 24.0571C18.2382 22.7064 19.6421 21.7333 21.2425 21.3016L21.2538 21.2985L21.2655 21.2993C21.4314 21.3087 21.6069 20.742 21.7401 20.3274C21.9369 19.7145 22.0668 19.3379 22.2884 19.3539C24.0039 19.4652 25.1471 19.538 25.9089 19.5856C27.3532 19.6759 27.6063 21.4436 27.6374 21.7258C29.1921 22.679 30.4079 24.1019 31.1113 25.7916C31.8148 27.4812 31.9699 29.3512 31.5547 31.1348L30.8348 34.2495L30.1987 35.746L30.4083 38.6985C31.395 39.5241 31.1123 41.2131 31.0561 41.4984C31.9963 42.4771 31.4189 43.6289 31.2789 43.8729C31.5195 44.1687 31.6833 44.5202 31.7555 44.8956C31.8276 45.271 31.8059 45.6585 31.6923 46.0234L32.5582 48.8551L32.4929 48.878C30.1955 49.6761 27.7807 50.0786 25.3501 50.0686Z" fill="#212529"/>
<path d="M29.0708 34.5181L26.2604 29.08L28.2036 23.8659L28.2447 23.8592C28.9956 23.7339 29.7667 23.8381 30.4581 24.1584C31.1495 24.4788 31.7296 25.0005 32.1232 25.656C32.7567 26.7048 33.2022 27.8573 33.4395 29.0611C34.0686 32.4375 34.2872 33.1189 34.2894 33.1253L34.3137 33.1992L29.0708 34.5181Z" fill="#212529"/>
<path d="M31.6722 50.5007C34.6168 50.5007 37.0038 48.0989 37.0038 45.136C37.0038 42.1732 34.6168 39.7713 31.6722 39.7713C28.7276 39.7713 26.3406 42.1732 26.3406 45.136C26.3406 48.0989 28.7276 50.5007 31.6722 50.5007Z" fill="#212529"/>
<path d="M26.5767 50.7105C26.3346 50.6313 26.1126 50.4997 25.9264 50.3249C25.7403 50.15 25.5945 49.9362 25.4994 49.6986C25.4042 49.4609 25.362 49.2052 25.3758 48.9493C25.3895 48.6935 25.4588 48.4438 25.5788 48.2178L20.8756 34.793L21.3465 30.3266L23.2653 29.0769L25.2022 35.3203L28.0543 47.5425C28.4182 47.7705 28.6864 48.1249 28.8079 48.5385C28.9295 48.9522 28.8961 49.3963 28.714 49.7868C28.5318 50.1773 28.2137 50.4871 27.8198 50.6573C27.4259 50.8275 26.9836 50.8465 26.5767 50.7105H26.5767Z" fill="#A0616A"/>
<path d="M18.3414 25.6289L22.7894 23.8964L25.3721 32.5589L19.4108 34.4596L18.3414 25.6289Z" fill="#212529"/>
<path d="M20.9412 16.7648C20.886 16.765 20.8311 16.7561 20.7787 16.7384C20.5732 16.6478 20.4013 16.4941 20.2878 16.2993C19.4948 15.1518 19.1119 13.6218 19.1499 11.7519C19.166 10.9608 19.2549 9.94929 19.8055 9.14303C20.2686 8.46507 21.2052 7.92705 22.0781 8.19712C22.0305 7.84443 22.2675 7.49407 22.5488 7.32065C22.8794 7.11692 23.2775 7.07941 23.6285 7.04621C24.5151 6.9626 25.4315 6.87617 26.3292 7.04734C27.3358 7.23944 28.1588 7.76146 28.5872 8.47953L28.5959 8.50209L28.683 8.9276C28.6947 8.9848 28.7186 9.03877 28.753 9.08579C28.7874 9.13282 28.8316 9.17177 28.8824 9.19998C28.9332 9.22819 28.9895 9.24498 29.0474 9.24919C29.1053 9.2534 29.1634 9.24494 29.2177 9.22438C29.277 9.20193 29.3411 9.19541 29.4037 9.20549C29.4662 9.21556 29.5251 9.24188 29.5745 9.28183C29.6238 9.32179 29.662 9.37401 29.6852 9.43334C29.7084 9.49267 29.7158 9.55706 29.7067 9.62015L29.6824 9.7894L29.9356 9.74175C29.9989 9.72986 30.0643 9.73508 30.1249 9.75688C30.1856 9.77867 30.2395 9.81626 30.281 9.86582C30.3226 9.91538 30.3503 9.97513 30.3615 10.039C30.3726 10.1029 30.3667 10.1685 30.3444 10.2294L30.2728 10.424C30.3252 10.4243 30.377 10.4355 30.4249 10.4567C30.4729 10.478 30.516 10.5089 30.5516 10.5475C30.6028 10.6029 30.6351 10.6734 30.6437 10.7485C30.6523 10.8237 30.6368 10.8997 30.5994 10.9653C30.3165 11.4522 29.9151 11.8586 29.433 12.1462C29.1695 12.3057 28.8814 12.4197 28.5805 12.4835C26.6282 12.9075 24.6153 12.9684 22.6412 12.6632C22.758 13.055 22.803 13.4649 22.7739 13.8729C22.7107 14.3831 22.413 14.8041 22.0155 14.9455C21.925 14.9751 21.8323 14.9976 21.7384 15.0127C21.6485 15.0268 21.56 15.0484 21.4737 15.0774C21.3459 15.1247 21.2327 15.205 21.1456 15.3103C21.0584 15.4156 21.0004 15.5422 20.9775 15.6773C20.9545 15.8124 20.9673 15.9511 21.0146 16.0796C21.0619 16.2081 21.1421 16.3218 21.247 16.4092L21.4431 16.2036L21.3793 16.4649C21.366 16.5158 21.3422 16.5633 21.3095 16.6043C21.2767 16.6453 21.2358 16.6789 21.1893 16.703C21.113 16.7439 21.0277 16.7652 20.9412 16.7648Z" fill="#2F2E41"/>
<path d="M40.5586 93.8282C40.5587 93.8508 40.5543 93.8732 40.5457 93.894C40.5372 93.9149 40.5246 93.9339 40.5087 93.9499C40.4929 93.9658 40.474 93.9785 40.4533 93.9871C40.4325 93.9957 40.4103 94.0001 40.3879 94H0.170744C0.125459 94 0.0820311 93.9819 0.0500101 93.9497C0.017989 93.9175 0 93.8738 0 93.8282C0 93.7826 0.017989 93.7389 0.0500101 93.7067C0.0820311 93.6745 0.125459 93.6564 0.170744 93.6564H40.3879C40.4103 93.6563 40.4325 93.6607 40.4533 93.6693C40.474 93.6779 40.4929 93.6906 40.5087 93.7066C40.5246 93.7225 40.5372 93.7415 40.5457 93.7624C40.5543 93.7832 40.5587 93.8056 40.5586 93.8282Z" fill="white"/>
</g>
<defs>
<clipPath id="clip0_136_1322">
<rect width="125" height="94" fill="white"/>
</clipPath>
</defs>
</svg>
